<?xml version="1.0"?>
<svg xmlns:rdf="http://www.w3.org/1999/02/22-rdf-syntax-ns#" xmlns="http://www.w3.org/2000/svg" xmlns:cc="http://web.resource.org/cc/" xmlns:xlink="http://www.w3.org/1999/xlink" xmlns:dc="http://purl.org/dc/elements/1.1/" id="Layer_1" xml:space="preserve" viewBox="0 0 1000 1000" y="0px" version="1.1" enable-background="new 0 0 1000 1000" x="0px">
	<defs>
		<filter id="Adobe_OpacityMaskFilter" height="17.758" width="681" y="933.85" x="107.76" filterUnits="userSpaceOnUse">
			<feColorMatrix values="1 0 0 0 0  0 1 0 0 0  0 0 1 0 0  0 0 0 1 0" type="matrix"/>
		</filter>
	</defs>
	<mask id="SVGID_1_" height="17.758" width="681.003" y="933.847" x="107.764" maskUnits="userSpaceOnUse">
		<g filter="url(#Adobe_OpacityMaskFilter)">
			<linearGradient id="SVGID_2_" y2="942.73" gradientUnits="userSpaceOnUse" x2="792.91" y1="942.73" x1="107.76">
				<stop stop-color="#fff" offset="0"/>
				<stop stop-color="#E4E4E4" offset=".0333"/>
				<stop stop-color="#B4B4B4" offset=".0979"/>
				<stop stop-color="#898989" offset=".1682"/>
				<stop stop-color="#646464" offset=".2426"/>
				<stop stop-color="#454545" offset=".3221"/>
				<stop stop-color="#2C2C2C" offset=".4084"/>
				<stop stop-color="#181818" offset=".5039"/>
				<stop stop-color="#0A0A0A" offset=".6139"/>
				<stop stop-color="#020202" offset=".7511"/>
				<stop offset="1"/>
			</linearGradient>
			<polygon points="788.77 951.61 788.77 933.85 133.64 933.85 107.76 951.61" fill="url(#SVGID_2_)"/>
		</g>
	</mask>
	<polygon opacity=".1" points="788.77 951.61 788.77 933.85 133.64 933.85 107.76 951.61" mask="url(#SVGID_1_)"/>
	<path d="m895.86 111.15c0-35.853-29.334-65.187-65.187-65.187h-649.32c-35.853 0-65.187 29.334-65.187 65.187v511.26c0 35.853 29.334 65.187 65.187 65.187h37.066l-92.613 216.56c-1.73 4.046-4.561 10.666-6.291 14.711l-12.233 28.604c-1.73 4.046-0.14 5.373 3.533 2.951l30.308-19.99c3.673-2.423 9.683-6.387 13.356-8.81l354.82-234.03h321.37c35.853 0 65.187-29.334 65.187-65.187l-0.01-511.25zm-464.84 125.06c12.701-12.761 31.752-20.632 57.156-23.606v-23.978h34.574v23.978c23.17 2.974 40.52 10.752 52.044 23.327 11.524 12.579 17.287 29.958 17.287 52.138 0 3.099-0.25 7.806-0.744 14.126h-75.093v-12.46c0-13.258-0.869-21.934-2.603-26.023-1.736-4.089-5.453-6.134-11.152-6.134-4.586 0-8.024 1.766-10.317 5.297-2.293 3.532-3.439 8.829-3.439 15.893 0 11.774 2.353 20.013 7.064 24.721 4.583 4.711 18.091 13.88 40.521 27.51 19.081 11.524 32.093 20.353 39.034 26.487 6.937 6.133 12.793 14.809 17.564 26.022 4.77 11.216 7.156 25.186 7.156 41.914 0 26.766-6.444 47.77-19.33 63.011-12.889 15.242-32.22 24.661-57.993 28.254v28.254h-34.574v-29.184c-20.074-1.98-37.61-9.694-52.602-23.141-14.995-13.444-22.491-36.897-22.491-70.354v-14.684h75.094v18.401c0 20.199 0.773 32.746 2.323 37.64 1.548 4.896 5.299 7.341 11.246 7.341 5.081 0 8.859-1.702 11.34-5.111 2.477-3.406 3.717-8.457 3.717-15.149 0-16.85-1.179-28.904-3.531-36.153-2.356-7.249-10.409-15.149-24.164-23.699-22.927-14.373-38.509-24.936-46.748-31.691-8.242-6.753-15.367-16.264-21.376-28.532-6.012-12.268-9.015-26.144-9.015-41.636-0.02-22.43 6.33-40.03 19.04-52.79zm-146.95 227.41c1.549 4.896 5.299 7.341 11.246 7.341 5.08 0 8.858-1.702 11.339-5.111 2.477-3.406 3.717-8.457 3.717-15.149 0-16.85-1.179-28.904-3.531-36.153-2.356-7.249-10.409-15.149-24.163-23.699-22.927-14.373-38.509-24.936-46.748-31.691-8.242-6.753-15.367-16.264-21.376-28.532-6.012-12.268-9.015-26.144-9.015-41.636 0-22.427 6.349-40.024 19.052-52.789 12.701-12.761 31.752-20.632 57.156-23.606v-23.978h34.573v23.978c23.17 2.974 40.52 10.752 52.044 23.327 11.524 12.579 17.287 29.958 17.287 52.138 0 3.099-0.25 7.806-0.744 14.126h-75.093v-12.45c0-13.258-0.869-21.934-2.603-26.023-1.736-4.089-5.453-6.134-11.151-6.134-4.586 0-8.024 1.766-10.317 5.297-2.293 3.532-3.439 8.829-3.439 15.893 0 11.774 2.353 20.013 7.065 24.721 4.582 4.711 18.09 13.88 40.52 27.51 19.081 11.524 32.093 20.353 39.034 26.487 6.937 6.133 12.793 14.809 17.564 26.022 4.77 11.216 7.156 25.186 7.156 41.914 0 26.766-6.444 47.77-19.33 63.011-12.889 15.242-32.22 24.661-57.993 28.254v28.254h-34.573v-29.184c-20.074-1.98-37.61-9.694-52.602-23.141-14.995-13.444-22.492-36.897-22.492-70.354v-14.684h75.094v18.401c-0.02 20.19 0.76 32.74 2.31 37.63zm503.09 24.82c-12.889 15.242-32.22 24.661-57.993 28.254v28.254h-34.573v-29.184c-20.074-1.98-37.61-9.694-52.601-23.141-14.996-13.444-22.492-36.897-22.492-70.354v-14.684h75.093v18.401c0 20.199 0.773 32.746 2.323 37.64 1.549 4.896 5.299 7.341 11.246 7.341 5.08 0 8.858-1.702 11.339-5.111 2.477-3.406 3.717-8.457 3.717-15.149 0-16.85-1.179-28.904-3.531-36.153-2.356-7.249-10.409-15.149-24.163-23.699-22.928-14.373-38.509-24.936-46.747-31.691-8.243-6.753-15.367-16.264-21.376-28.532-6.012-12.268-9.016-26.144-9.016-41.636 0-22.427 6.35-40.024 19.053-52.789 12.7-12.761 31.751-20.632 57.156-23.606v-23.978h34.573v23.978c23.17 2.974 40.52 10.752 52.044 23.327 11.524 12.579 17.287 29.958 17.287 52.138 0 3.099-0.25 7.806-0.744 14.126h-75.093v-12.46c0-13.258-0.869-21.934-2.603-26.023-1.736-4.089-5.453-6.134-11.151-6.134-4.586 0-8.024 1.766-10.317 5.297-2.293 3.532-3.439 8.829-3.439 15.893 0 11.774 2.353 20.013 7.064 24.721 4.583 4.711 18.09 13.88 40.52 27.51 19.081 11.524 32.093 20.353 39.034 26.487 6.937 6.133 12.793 14.809 17.564 26.022 4.77 11.216 7.156 25.186 7.156 41.914 0 26.76-6.44 47.77-19.33 63.01z"/>
<metadata><rdf:RDF><cc:Work><dc:format>image/svg+xml</dc:format><dc:type rdf:resource="http://purl.org/dc/dcmitype/StillImage"/><cc:license rdf:resource="http://creativecommons.org/licenses/publicdomain/"/><dc:publisher><cc:Agent rdf:about="http://openclipart.org/"><dc:title>Openclipart</dc:title></cc:Agent></dc:publisher></cc:Work><cc:License rdf:about="http://creativecommons.org/licenses/publicdomain/"><cc:permits rdf:resource="http://creativecommons.org/ns#Reproduction"/><cc:permits rdf:resource="http://creativecommons.org/ns#Distribution"/><cc:permits rdf:resource="http://creativecommons.org/ns#DerivativeWorks"/></cc:License></rdf:RDF></metadata></svg>
