<?xml version="1.0" encoding="UTF-8" standalone="no"?>
<!-- Created with Inkscape (http://www.inkscape.org/) -->

<svg
   xmlns:dc="http://purl.org/dc/elements/1.1/"
   xmlns:cc="http://creativecommons.org/ns#"
   xmlns:rdf="http://www.w3.org/1999/02/22-rdf-syntax-ns#"
   xmlns:svg="http://www.w3.org/2000/svg"
   xmlns="http://www.w3.org/2000/svg"
   xmlns:sodipodi="http://sodipodi.sourceforge.net/DTD/sodipodi-0.dtd"
   xmlns:inkscape="http://www.inkscape.org/namespaces/inkscape"
   id="svg548"
   inkscape:version="0.92.1 r15371"
   viewBox="0 0 1020.0792 894.23923"
   sodipodi:version="0.32"
   version="1.1"
   sodipodi:docname="rocket.svg"
   width="1088.0845"
   height="953.85516">
  <defs
     id="defs4549" />
  <sodipodi:namedview
     id="base"
     inkscape:window-x="-8"
     inkscape:window-y="-8"
     inkscape:window-height="706"
     inkscape:window-maximized="1"
     inkscape:zoom="0.3108143"
     showgrid="true"
     inkscape:current-layer="svg548"
     inkscape:cx="-170.2617"
     inkscape:cy="910.57147"
     inkscape:window-width="1366"
     inkscape:snap-global="false"
     fit-margin-top="0"
     fit-margin-left="0"
     fit-margin-right="0"
     fit-margin-bottom="0" />
  <g
     id="g846"
     transform="translate(-12.806029,-26.099011)">
    <path
       id="path671"
       style="fill:#ff4000;fill-rule:evenodd;stroke-width:3.75"
       d="m 271.34,362.64 c 0,0 12.71,37.3 27.13,68.68 14.41,31.37 39.85,46.63 43.24,46.63 3.39,0 6.79,-17.8 5.94,-27.98 -0.85,-10.17 -24.59,-30.52 16.11,1.7 40.7,32.22 69.53,45.79 66.98,34.76 4.24,-27.13 -43.24,-83.94 -12.71,-73.77 30.52,10.18 82.24,33.92 50.02,-3.39 -32.22,-37.31 -65.29,-54.27 -37.31,-53.42 27.99,0.85 55.12,13.57 41.55,-11.02 -13.56,-24.59 -78.83,-62.83 -106.81,-78.94 -22.05,11.02 -65.32,39.94 -94.14,96.75 z"
       sodipodi:nodetypes="cccccccccccc"
       inkscape:connector-curvature="0"
       transform="matrix(1.0041,0,0,1.0147,-1.1119,-7.2235)" />
    <path
       id="path672"
       inkscape:connector-curvature="0"
       sodipodi:nodetypes="cccccccccc"
       style="fill:#ffff33;fill-opacity:0.69630001;fill-rule:evenodd;stroke-width:12.5;stroke-linejoin:round"
       d="m 284.05,339.74 c 0,0 9.33,44.94 19.51,58.51 10.17,13.57 12.72,11.87 15.26,-6.78 2.54,-18.66 -15.26,-37.31 15.26,-16.96 30.53,20.35 56.81,45.79 41.55,14.41 -15.26,-31.37 -19.5,-39 1.69,-27.98 21.2,11.02 41.55,19.5 16.12,-11.02 -19.51,-22.05 19.5,-27.98 26.28,-30.53 16.11,2.55 -68.68,-44.94 -77.16,-44.94 -9.33,1.7 -55.12,58.51 -58.51,65.29 z" />
    <path
       id="path663"
       style="fill:#d9d9d9;fill-rule:evenodd;stroke:#000000;stroke-width:10;stroke-linejoin:round"
       d="m 43.244,60.776 c 78.856,1.696 278.12,33.917 354.44,229.78 -26.29,5.09 -90.73,67.84 -100.91,102.6 -194.17,-99.2 -249.29,-256.07 -253.53,-332.38 z"
       sodipodi:nodetypes="cccc"
       inkscape:connector-curvature="0"
       transform="translate(-25.438,-29.677)" />
    <path
       id="path664"
       style="fill:#bfbfbf;fill-rule:evenodd;stroke:#000000;stroke-width:10;stroke-linejoin:round"
       d="m 189.09,321.94 c 0,0 3.39,86.48 3.39,87.33 0,0.85 104.29,48.33 110.23,50.88 l -5.09,-67.84 c -9.33,0.85 -92.42,-52.57 -108.53,-70.37 z"
       sodipodi:nodetypes="ccccc"
       inkscape:connector-curvature="0"
       transform="translate(-25.438,-29.677)" />
    <path
       id="path665"
       style="fill:#bfbfbf;fill-rule:evenodd;stroke:#000000;stroke-width:10;stroke-linejoin:round"
       d="m 190.76,322.82 c 0,0 1.72,85.6 1.72,86.45 0,0.85 104.29,48.33 110.23,50.88 l -5.09,-67.84 c -32.81,-9.9 -87.42,-49.05 -106.86,-69.49 z"
       sodipodi:nodetypes="ccccc"
       inkscape:connector-curvature="0"
       transform="matrix(-0.024575,0.9997,0.9997,0.024575,-13.306,-47.284)" />
    <path
       id="path666"
       inkscape:connector-curvature="0"
       sodipodi:nodetypes="ccccc"
       style="fill:#bfbfbf;fill-rule:evenodd;stroke:#000000;stroke-width:10;stroke-linejoin:round"
       d="m 235.32,210.17 c 0,0 14.26,34.12 16.66,39.68 2.96,3.75 77.59,64.66 83.07,68.08 l -3.18,-21.68 c -7.99,-7.7 -76.8,-68.02 -96.55,-86.08 z" />
    <path
       id="path667"
       inkscape:connector-curvature="0"
       sodipodi:nodetypes="ccccccc"
       style="fill:#bfbfbf;fill-rule:evenodd;stroke:#000000;stroke-width:10;stroke-linejoin:round"
       d="m 232.64,209.4 -16.77,24.28 20.64,35.73 85.76,67.75 12.38,-18.55 -81.99,-69.24 z" />
    <path
       id="path668"
       inkscape:connector-curvature="0"
       sodipodi:nodetypes="ccc"
       style="fill:#bfbfbf;fill-rule:evenodd;stroke:#000000;stroke-width:12.5;stroke-linejoin:round"
       d="m 124.64,131.15 c -28.825,39.01 30.53,87.34 58.51,52.57 33.92,-42.39 -24.59,-83.09 -58.51,-52.57 z" />
    <path
       id="path669"
       inkscape:connector-curvature="0"
       sodipodi:nodetypes="ccc"
       style="fill:#aeffff;fill-rule:evenodd;stroke:#000000;stroke-width:10;stroke-linejoin:round"
       d="m 132.28,135.39 c 21.19,-20.35 70.37,4.24 48.33,40.7 -24.59,31.38 -74.62,-8.47 -48.33,-40.7 z" />
    <path
       id="path670"
       inkscape:connector-curvature="0"
       sodipodi:nodetypes="ccc"
       style="fill:#ffffff;fill-opacity:0.75;fill-rule:evenodd;stroke-width:12.5;stroke-linejoin:round"
       d="m 148.39,134.5 c -6.86,4.74 -24.9,19.63 -10.18,37.35 12.72,3.4 30.53,-35.65 10.18,-37.35 z" />
  </g>
  <metadata
     id="metadata15">
    <rdf:RDF>
      <cc:Work>
        <dc:format>image/svg+xml</dc:format>
        <dc:type
           rdf:resource="http://purl.org/dc/dcmitype/StillImage" />
        <cc:license
           rdf:resource="http://creativecommons.org/publicdomain/zero/1.0/" />
        <dc:publisher>
          <cc:Agent
             rdf:about="http://openclipart.org/">
            <dc:title>Openclipart</dc:title>
          </cc:Agent>
        </dc:publisher>
        <dc:title></dc:title>
      </cc:Work>
      <cc:License
         rdf:about="http://creativecommons.org/publicdomain/zero/1.0/">
        <cc:permits
           rdf:resource="http://creativecommons.org/ns#Reproduction" />
        <cc:permits
           rdf:resource="http://creativecommons.org/ns#Distribution" />
        <cc:permits
           rdf:resource="http://creativecommons.org/ns#DerivativeWorks" />
      </cc:License>
    </rdf:RDF>
  </metadata>
  <metadata
     id="metadata19">
    <rdf:RDF>
      <cc:Work
         rdf:about="">
        <dc:title>Clipart by Nicu Buculei - piggybank</dc:title>
        <dc:rights>
          <cc:Agent>
            <dc:title>Nicu Buculei</dc:title>
          </cc:Agent>
        </dc:rights>
        <dc:type
           rdf:resource="http://purl.org/dc/dcmitype/StillImage" />
        <cc:license
           rdf:resource="http://web.resource.org/cc/PublicDomain" />
      </cc:Work>
      <cc:License
         rdf:about="http://web.resource.org/cc/PublicDomain">
        <cc:permits
           rdf:resource="http://web.resource.org/cc/Reproduction" />
        <cc:permits
           rdf:resource="http://web.resource.org/cc/Distribution" />
        <cc:permits
           rdf:resource="http://web.resource.org/cc/DerivativeWorks" />
      </cc:License>
    </rdf:RDF>
  </metadata>
  <path
     d="m 664.90381,483.26529 c -3.10064,-0.43145 -8.96355,-4.14241 -14.33632,-9.07535 -2.95328,-2.71152 -5.88351,-5.31716 -6.50852,-5.78748 -0.62832,-0.47364 -4.06686,-4.01594 -7.6415,-7.87217 l -6.495,-7.00586 -5.84083,0.90267 c -3.21311,0.49644 -7.63297,0.9268 -9.81594,0.96509 -2.18928,0.0313 -5.07316,0.189 -6.40081,0.36034 -3.05291,0.38831 -11.9581,-1.94117 -13.37412,-3.49193 -1.27256,-1.39361 -0.34115,-3.67515 1.64821,-4.03727 0.77703,-0.14183 1.81086,-0.75977 2.29727,-1.37417 0.50453,-0.6372 2.89648,-0.52079 5.56896,0.27115 4.88427,1.44724 8.51246,0.93169 13.03105,-1.85143 1.7779,-1.09513 2.51336,-2.02453 2.19838,-2.77824 -0.26039,-0.62293 -3.92183,-5.07816 -8.13671,-9.9007 -9.47928,-10.84567 -9.55122,-13.50946 -0.095,-3.50704 3.63098,3.84074 7.68586,8.12494 9.01066,9.52035 1.97515,2.08047 2.77104,2.34192 4.42183,1.45267 2.06941,-1.11468 6.41116,-7.1783 6.12611,-8.55546 -0.0878,-0.42455 -3.14624,-3.18639 -6.79646,-6.13749 -3.65024,-2.95111 -10.49942,-8.97975 -15.22046,-13.39697 -4.72102,-4.41723 -9.75088,-8.88379 -11.17689,-9.92522 -2.46116,-1.79738 -2.69783,-1.76196 -4.64408,0.69506 -1.12788,1.42392 -2.06689,2.96296 -2.08671,3.42012 -0.0197,0.45707 2.53244,3.72119 5.67147,7.25357 7.11267,8.00346 7.2464,8.18599 6.49245,8.87445 -0.33996,0.31026 -3.0506,-2.21326 -6.02376,-5.60802 -2.97327,-3.39471 -6.04527,-6.30256 -6.82683,-6.4617 -0.78302,-0.16096 -2.6032,0.79064 -4.04886,2.11019 -3.17006,2.89465 -5.32977,3.83844 -6.32228,2.7515 -0.40374,-0.44224 -3.31185,-1.16774 -6.46235,-1.61223 -3.15051,-0.44454 -6.95404,-1.53128 -8.45239,-2.41501 -5.68108,-3.35085 -24.96556,-23.16327 -25.78471,-26.49053 -0.25417,-1.03371 -1.01685,-2.81282 -1.69431,-3.95379 -0.67717,-1.14103 -1.22026,-3.22835 -1.20624,-4.63892 0.0142,-1.41057 -0.30231,-2.82413 -0.70324,-3.14124 -0.40089,-0.31711 -0.38575,-0.46147 0.0336,-0.32071 1.62682,0.54576 2.59468,-1.59153 2.45027,-5.41124 -0.0829,-2.19356 0.21192,-4.16261 0.65523,-4.37548 0.44327,-0.213 0.38968,-0.50559 -0.11908,-0.65038 -0.50885,-0.14477 -0.63234,-2.10491 -0.27441,-4.35582 l 0.65355,-4.08928 -7.75808,-7.70226 c -4.26638,-4.2357 -8.72507,-8.53189 -9.90865,-9.54585 -1.18292,-1.01464 -4.95201,-4.48052 -8.37449,-7.70308 -5.40681,-5.08979 -6.12699,-6.05085 -5.48742,-7.32681 0.43453,-0.86747 0.0202,-2.26175 -1.01175,-3.40438 -0.96118,-1.06444 -1.86926,-2.6216 -2.01814,-3.4602 -0.56179,-3.1675 2.40975,-2.51785 7.89701,1.7265 13.36536,10.33773 15.6394,11.87182 19.83006,13.37732 2.75765,0.99042 6.25318,3.25313 9.24552,5.98473 l 4.81155,4.39222 7.30712,-3.61399 c 11.06757,-5.47405 24.88008,-10.86861 27.63788,-10.79454 3.3081,0.089 4.14041,2.55033 1.63573,4.83744 -1.09073,0.99603 -2.40957,1.79139 -2.93039,1.76786 -0.52092,-0.0236 -2.66315,0.87529 -4.76049,1.99769 -3.64289,1.94941 -3.73629,2.08515 -2.08945,3.03558 0.94814,0.54722 2.8848,1.08882 4.30377,1.20373 5.18989,0.42004 10.76485,3.31267 12.96678,6.72804 1.13248,1.75659 1.92795,3.65491 1.76758,4.2185 -0.38827,1.36463 -6.77594,0.86348 -12.79868,-1.00403 -2.67419,-0.82923 -8.28148,-1.78628 -12.46085,-2.12708 -5.83363,-0.47532 -8.05473,-0.20248 -9.56285,1.17464 -1.11376,1.01703 -1.61911,2.16564 -1.167,2.65258 2.88667,3.10927 18.54048,17.05965 24.09891,21.47643 3.67988,2.92404 6.92447,5.56994 7.2102,5.87979 0.56575,0.61352 2.06656,-1.63129 4.02763,-6.02219 4.6952,-10.51454 5.9031,-12.52155 10.33473,-17.16981 4.17313,-4.37714 5.3821,-5.19937 8.44644,-5.74459 1.96709,-0.34988 4.6886,-0.0813 6.04797,0.59742 3.14449,1.56992 18.89834,18.66255 19.59235,21.25728 0.28721,1.07389 2.43019,4.48871 4.76232,7.58842 2.33213,3.0997 5.34469,8.06133 6.69454,11.02587 1.3499,2.96446 3.09778,6.80207 3.88404,8.52797 1.57273,3.45215 3.18812,6.55722 7.38795,14.20129 5.00203,9.10424 5.25079,9.73915 6.10913,15.60521 0.70615,4.82517 -1.78266,14.26865 -4.14175,15.71427 -1.57709,0.96637 -1.36469,1.27613 6.02865,8.79518 14.56658,14.81417 14.27382,14.45303 12.80426,15.79498 -1.08387,0.98971 -2.64417,0.35044 -8.63747,-3.53881 -4.02307,-2.61064 -9.81195,-7.2474 -12.86362,-10.30326 -5.51895,-5.52654 -7.16836,-6.25012 -9.50017,-4.16786 -0.52878,0.47332 -3.69643,1.61567 -7.03796,2.53994 -3.34153,0.92437 -6.08546,1.89973 -6.09755,2.1676 -0.0449,0.98871 21.61238,21.37929 25.30959,23.8292 4.1541,2.75276 5.48171,2.66201 3.75711,-0.25687 -0.60294,-1.02051 -0.0281,-0.59025 1.27865,0.95602 2.52288,2.98672 2.37919,4.8502 -0.34488,4.47175 z m -3.25263,-52.19154 c -0.057,-1.16984 -0.51802,-3.46259 -1.02432,-5.09503 -0.50638,-1.63237 -1.02394,-3.3088 -1.15042,-3.72524 -0.1263,-0.41649 -0.73782,1.85568 -1.35859,5.04919 -1.14227,5.87668 -0.0197,9.23716 2.35974,7.06441 0.7025,-0.64153 1.23064,-2.12345 1.17355,-3.29328 z m -21.37148,8.08895 c -5.13768,-4.30717 -5.44302,-4.39787 -6.98171,-2.07411 -0.75281,1.1369 -2.29072,3.0639 -3.41759,4.28224 -1.12686,1.21831 -2.40706,2.6049 -2.84492,3.08123 -0.43789,0.47633 -0.23367,1.48198 0.4537,2.23475 1.40437,1.53795 6.51508,1.08891 6.99982,-0.61502 0.16774,-0.6102 0.60689,-0.78271 0.96087,-0.395 0.35834,0.39231 1.93088,0.0812 3.49461,-0.69147 5.06031,-2.50035 5.09795,-2.66529 1.32982,-5.82426 z m 12.77878,-20.07403 c -0.3159,-3.41857 -1.00418,-6.6749 -1.52253,-7.24258 -0.51894,-0.56828 -0.92319,-1.4799 -0.89883,-2.0255 0.0394,-1.01352 -4.46536,-9.36706 -4.85995,-9.00673 -0.11737,0.10756 0.095,2.42838 0.47231,5.1579 0.37733,2.72951 9.5e-4,7.35254 -0.8363,10.27349 -1.61798,5.6442 -1.08675,6.94663 4.51021,11.05646 2.04415,1.50104 2.48098,1.48325 3.04833,-0.12381 0.36427,-1.03175 0.40064,-4.67111 0.0809,-8.08749 z m -29.42315,28.02735 c -0.763,-0.38239 -1.90883,-0.21213 -2.55127,0.37452 -1.06545,0.97278 -0.94668,1.08713 1.3576,1.30717 2.76718,0.2643 3.37384,-0.58804 1.19534,-1.67929 z m -5.76085,1.55333 c -0.13163,-0.14347 -1.17427,-0.19112 -2.31781,-0.10525 -1.88442,0.1415 -1.88645,0.18831 -0.0228,0.50008 1.96056,0.3299 2.86396,0.17781 2.33928,-0.39681 z m 23.30828,-40.76072 c -0.21259,-2.4452 -0.99049,-6.77233 -1.7281,-9.6157 -1.22458,-4.7178 -1.83778,-5.65614 -7.0141,-10.73408 -7.3146,-7.17536 -13.54878,-11.91711 -15.29005,-11.6297 -2.94209,0.49015 -10.25292,4.53793 -13.43059,7.43956 -3.30274,3.01584 -3.31539,3.06828 -1.27743,5.29248 1.13212,1.23549 3.33663,3.07878 4.89893,4.09605 1.56232,1.01729 4.71732,3.56363 7.01114,5.65859 4.22682,3.86034 21.9389,17.95934 23.98124,19.08929 1.73729,0.96124 3.31039,-4.32915 2.85244,-9.59336 z m -24.52865,-1.73497 c -0.44012,-0.02 -0.23035,0.53832 0.46573,1.2408 0.76971,0.77621 1.08349,0.79041 0.8002,0.0363 -0.25596,-0.68251 -0.82615,-1.25708 -1.26628,-1.27703 l -4e-5,2e-5 z m -9.16387,-7.27552 c -3.62699,-2.84297 -5.42411,-3.91207 -4.2168,-2.50868 2.23769,2.60121 11.50175,9.63238 10.89597,8.2698 -0.19693,-0.44403 -3.20301,-3.03649 -6.6795,-5.76145 z m 25.78077,-23.12369 C 622.3718,361.90383 616.0216,354.35441 615.58769,354.7519 c -0.28524,0.26117 -0.90136,0.0556 -1.369,-0.45647 -0.46754,-0.51222 -1.97776,-0.92609 -3.35588,-0.91997 -3.98231,0.0178 -7.16734,4.3022 -15.39314,20.7062 -1.6089,3.20844 -2.83967,6.31974 -2.73521,6.91395 0.31724,1.80269 3.27009,3.27604 3.4969,1.74468 0.1099,-0.7421 1.35563,-3.21176 2.76824,-5.48822 3.49102,-5.62588 6.40715,-6.74023 16.2306,-6.20277 8.35024,0.45709 12.25871,1.94858 16.08389,6.13768 4.0173,4.3995 5.61739,3.2445 1.95759,-1.41305 z m -48.4237,32.9053 c 1.99967,-3.13358 0.22144,-3.211 -3.14037,-0.14126 -2.76647,2.52609 -2.95708,2.95406 -1.39037,3.17387 1.97455,0.27436 2.74594,-0.24197 4.53051,-3.03281 z m -3.11707,-7.93213 c -0.3034,-0.33231 -2.32165,1.00277 -4.47956,2.97325 -4.07467,3.72066 -4.15551,4.69824 -0.18223,2.20374 1.26496,-0.79424 2.49687,-1.43507 2.73752,-1.4241 0.84558,0.0403 2.48188,-3.14227 1.9256,-3.75147 z m 5.45784,-4.33663 c 0.39125,-0.78108 0.31513,-1.85412 -0.16922,-2.38457 -1.13265,-1.24048 -4.19779,1.50982 -4.09531,3.67475 0.12814,2.70819 2.64279,1.9474 4.26454,-1.2902 z m -10.5694,0.50377 c 0.26135,-0.96364 -2.85728,-4.86656 -11.57442,-14.48553 -18.79791,-20.74241 -17.1623,-19.22838 -18.72102,-17.329 -0.86497,1.05426 -0.95848,3.08015 -0.25959,5.62458 0.60078,2.18731 1.0285,4.32656 0.95038,4.75398 -0.0781,0.42739 0.46805,1.90915 1.21332,3.29296 0.74544,1.38371 1.34386,3.65284 1.32995,5.04252 -0.0265,2.65125 0.58281,3.60676 5.42089,8.50081 9.63692,9.74827 12.91252,11.83544 15.79457,10.06324 3.20453,-1.96975 5.47258,-4.09028 5.84545,-5.46398 z m 4.30687,-6.55724 c 0.2766,-1.01583 -0.6161,-2.32511 -3.05952,-4.48675 -1.89287,-1.67393 -7.50098,-6.77282 -12.45777,-11.32388 -4.95608,-4.55172 -9.98182,-8.81128 -11.17473,-9.47397 -2.596,-1.43778 -3.61574,-2.70039 12.24541,15.16143 10.36042,11.66729 12.1247,13.36473 13.02219,12.52877 0.57075,-0.53205 1.21363,-1.6127 1.42849,-2.40165 z m -5.67954,-49.54382 c -0.34766,-0.3808 -0.96209,-0.39104 -1.36531,-0.0229 -0.40327,0.36815 -0.25612,0.80518 0.32691,0.97104 0.58301,0.16589 1.19742,0.17617 1.36532,0.0229 0.16767,-0.15354 0.0208,-0.59033 -0.32691,-0.97106 z m -4.17021,-0.39604 c -0.96899,-1.06115 -6.5743,-1.67808 -6.61744,-0.72832 -0.0265,0.58276 6.71751,2.29581 7.22984,1.82804 0.11747,-0.10767 -0.15848,-0.60441 -0.61358,-1.10286 z m -1.52009,-5.83568 c -0.34765,-0.38076 -0.9621,-0.39101 -1.3653,-0.0228 -0.40329,0.36816 -0.25616,0.80516 0.32691,0.97105 0.58299,0.16588 1.19739,0.17614 1.36531,0.0229 0.16767,-0.15352 0.0208,-0.59032 -0.32692,-0.97108 z m -7.74458,3.40594 c -0.67032,-0.008 -2.21049,0.4592 -3.42236,1.03795 -1.97236,0.9413 -1.99541,1.0805 -0.21954,1.32732 1.0913,0.15162 2.63132,-0.31578 3.42236,-1.03796 0.86987,-0.79435 0.95664,-1.31886 0.21954,-1.32731 z m 25.08848,14.95007 c -0.6218,-0.17693 -1.11608,-0.63966 -1.09844,-1.02838 0.0431,-0.94875 2.19125,-1.30785 2.93709,-0.49107 0.80793,0.8847 -0.44121,1.91707 -1.83845,1.5196 z"
     style="fill:#000000;stroke-width:0.9375"
     id="path2950"
     inkscape:connector-curvature="0" />
  <path
     inkscape:connector-curvature="0"
     id="path5103"
     style="fill:#000000;stroke-width:0.9375"
     d="m 584.16727,658.77952 c -3.10064,-0.43145 -8.96355,-4.14241 -14.33632,-9.07535 -2.95328,-2.71152 -5.88351,-5.31716 -6.50852,-5.78748 -0.62832,-0.47364 -4.06686,-4.01594 -7.6415,-7.87217 l -6.495,-7.00586 -5.84083,0.90267 c -3.21311,0.49644 -7.63297,0.9268 -9.81594,0.96509 -2.18928,0.0313 -5.07316,0.189 -6.40081,0.36034 -3.05291,0.38831 -11.9581,-1.94117 -13.37412,-3.49193 -1.27256,-1.39361 -0.34115,-3.67515 1.64821,-4.03727 0.77703,-0.14183 1.81086,-0.75977 2.29727,-1.37417 0.50453,-0.6372 2.89648,-0.52079 5.56896,0.27115 4.88427,1.44724 8.51246,0.93169 13.03105,-1.85143 1.7779,-1.09513 2.51336,-2.02453 2.19838,-2.77824 -0.26039,-0.62293 -3.92183,-5.07816 -8.13671,-9.9007 -9.47928,-10.84567 -9.55122,-13.50946 -0.095,-3.50704 3.63098,3.84074 7.68586,8.12494 9.01066,9.52035 1.97515,2.08047 2.77104,2.34192 4.42183,1.45267 2.06941,-1.11468 6.41116,-7.1783 6.12611,-8.55546 -0.0878,-0.42455 -3.14624,-3.18639 -6.79646,-6.13749 -3.65024,-2.95111 -10.49942,-8.97975 -15.22046,-13.39697 -4.72102,-4.41723 -9.75088,-8.88379 -11.17689,-9.92522 -2.46116,-1.79738 -2.69783,-1.76196 -4.64408,0.69506 -1.12788,1.42392 -2.06689,2.96296 -2.08671,3.42012 -0.0197,0.45707 2.53244,3.72119 5.67147,7.25357 7.11267,8.00346 7.2464,8.18599 6.49245,8.87445 -0.33996,0.31026 -3.0506,-2.21326 -6.02376,-5.60802 -2.97327,-3.39471 -6.04527,-6.30256 -6.82683,-6.4617 -0.78302,-0.16096 -2.6032,0.79064 -4.04886,2.11019 -3.17006,2.89465 -5.32977,3.83844 -6.32228,2.7515 -0.40374,-0.44224 -3.31185,-1.16774 -6.46235,-1.61223 -3.15051,-0.44454 -6.95404,-1.53128 -8.45239,-2.41501 -5.68108,-3.35085 -24.96556,-23.16327 -25.78471,-26.49053 -0.25417,-1.03371 -1.01685,-2.81282 -1.69431,-3.95379 -0.67717,-1.14103 -1.22026,-3.22835 -1.20624,-4.63892 0.0142,-1.41057 -0.30231,-2.82413 -0.70324,-3.14124 -0.40089,-0.31711 -0.38575,-0.46147 0.0336,-0.32071 1.62682,0.54576 2.59468,-1.59153 2.45027,-5.41124 -0.0829,-2.19356 0.21192,-4.16261 0.65523,-4.37548 0.44327,-0.213 0.38968,-0.50559 -0.11908,-0.65038 -0.50885,-0.14477 -0.63234,-2.10491 -0.27441,-4.35582 l 0.65355,-4.08928 -7.75808,-7.70226 c -4.26638,-4.2357 -8.72507,-8.53189 -9.90865,-9.54585 -1.18292,-1.01464 -4.95201,-4.48052 -8.37449,-7.70308 -5.40681,-5.08979 -6.12699,-6.05085 -5.48742,-7.32681 0.43453,-0.86747 0.0202,-2.26175 -1.01175,-3.40438 -0.96118,-1.06444 -1.86926,-2.6216 -2.01814,-3.4602 -0.56179,-3.1675 2.40975,-2.51785 7.89701,1.7265 13.36536,10.33773 15.6394,11.87182 19.83006,13.37732 2.75765,0.99042 6.25318,3.25313 9.24552,5.98473 l 4.81155,4.39222 7.30712,-3.61399 c 11.06757,-5.47405 24.88008,-10.86861 27.63788,-10.79454 3.3081,0.089 4.14041,2.55033 1.63573,4.83744 -1.09073,0.99603 -2.40957,1.79139 -2.93039,1.76786 -0.52092,-0.0236 -2.66315,0.87529 -4.76049,1.99769 -3.64289,1.94941 -3.73629,2.08515 -2.08945,3.03558 0.94814,0.54722 2.8848,1.08882 4.30377,1.20373 5.18989,0.42004 10.76485,3.31267 12.96678,6.72804 1.13248,1.75659 1.92795,3.65491 1.76758,4.2185 -0.38827,1.36463 -6.77594,0.86348 -12.79868,-1.00403 -2.67419,-0.82923 -8.28148,-1.78628 -12.46085,-2.12708 -5.83363,-0.47532 -8.05473,-0.20248 -9.56285,1.17464 -1.11376,1.01703 -1.61911,2.16564 -1.167,2.65258 2.88667,3.10927 18.54048,17.05965 24.09891,21.47643 3.67988,2.92404 6.92447,5.56994 7.2102,5.87979 0.56575,0.61352 2.06656,-1.63129 4.02763,-6.02219 4.6952,-10.51454 5.9031,-12.52155 10.33473,-17.16981 4.17313,-4.37714 5.3821,-5.19937 8.44644,-5.74459 1.96709,-0.34988 4.6886,-0.0813 6.04797,0.59742 3.14449,1.56992 18.89834,18.66255 19.59235,21.25728 0.28721,1.07389 2.43019,4.48871 4.76232,7.58842 2.33213,3.0997 5.34469,8.06133 6.69454,11.02587 1.3499,2.96446 3.09778,6.80207 3.88404,8.52797 1.57273,3.45215 3.18812,6.55722 7.38795,14.20129 5.00203,9.10424 5.25079,9.73915 6.10913,15.60521 0.70615,4.82517 -1.78266,14.26865 -4.14175,15.71427 -1.57709,0.96637 -1.36469,1.27613 6.02865,8.79518 14.56658,14.81417 14.27382,14.45303 12.80426,15.79498 -1.08387,0.98971 -2.64417,0.35044 -8.63747,-3.53881 -4.02307,-2.61064 -9.81195,-7.2474 -12.86362,-10.30326 -5.51895,-5.52654 -7.16836,-6.25012 -9.50017,-4.16786 -0.52878,0.47332 -3.69643,1.61567 -7.03796,2.53994 -3.34153,0.92437 -6.08546,1.89973 -6.09755,2.1676 -0.0449,0.98871 21.61238,21.37929 25.30959,23.8292 4.1541,2.75276 5.48171,2.66201 3.75711,-0.25687 -0.60294,-1.02051 -0.0281,-0.59025 1.27865,0.95602 2.52288,2.98672 2.37919,4.8502 -0.34488,4.47175 z m -3.25263,-52.19154 c -0.057,-1.16984 -0.51802,-3.46259 -1.02432,-5.09503 -0.50638,-1.63237 -1.02394,-3.3088 -1.15042,-3.72524 -0.1263,-0.41649 -0.73782,1.85568 -1.35859,5.04919 -1.14227,5.87668 -0.0197,9.23716 2.35974,7.06441 0.7025,-0.64153 1.23064,-2.12345 1.17355,-3.29328 z m -21.37148,8.08895 c -5.13768,-4.30717 -5.44302,-4.39787 -6.98171,-2.07411 -0.75281,1.1369 -2.29072,3.0639 -3.41759,4.28224 -1.12686,1.21831 -2.40706,2.6049 -2.84492,3.08123 -0.43789,0.47633 -0.23367,1.48198 0.4537,2.23475 1.40437,1.53795 6.51508,1.08891 6.99982,-0.61502 0.16774,-0.6102 0.60689,-0.78271 0.96087,-0.395 0.35834,0.39231 1.93088,0.0812 3.49461,-0.69147 5.06031,-2.50035 5.09795,-2.66529 1.32982,-5.82426 z m 12.77878,-20.07403 c -0.3159,-3.41857 -1.00418,-6.6749 -1.52253,-7.24258 -0.51894,-0.56828 -0.92319,-1.4799 -0.89883,-2.0255 0.0394,-1.01352 -4.46536,-9.36706 -4.85995,-9.00673 -0.11737,0.10756 0.095,2.42838 0.47231,5.1579 0.37733,2.72951 9.5e-4,7.35254 -0.8363,10.27349 -1.61798,5.6442 -1.08675,6.94663 4.51021,11.05646 2.04415,1.50104 2.48098,1.48325 3.04833,-0.12381 0.36427,-1.03175 0.40064,-4.67111 0.0809,-8.08749 z m -29.42315,28.02735 c -0.763,-0.38239 -1.90883,-0.21213 -2.55127,0.37452 -1.06545,0.97278 -0.94668,1.08713 1.3576,1.30717 2.76718,0.2643 3.37384,-0.58804 1.19534,-1.67929 z m -5.76085,1.55333 c -0.13163,-0.14347 -1.17427,-0.19112 -2.31781,-0.10525 -1.88442,0.1415 -1.88645,0.18831 -0.0228,0.50008 1.96056,0.3299 2.86396,0.17781 2.33928,-0.39681 z m 23.30828,-40.76072 c -0.21259,-2.4452 -0.99049,-6.77233 -1.7281,-9.6157 -1.22458,-4.7178 -1.83778,-5.65614 -7.0141,-10.73408 -7.3146,-7.17536 -13.54878,-11.91711 -15.29005,-11.6297 -2.94209,0.49015 -10.25292,4.53793 -13.43059,7.43956 -3.30274,3.01584 -3.31539,3.06828 -1.27743,5.29248 1.13212,1.23549 3.33663,3.07878 4.89893,4.09605 1.56232,1.01729 4.71732,3.56363 7.01114,5.65859 4.22682,3.86034 21.9389,17.95934 23.98124,19.08929 1.73729,0.96124 3.31039,-4.32915 2.85244,-9.59336 z m -24.52865,-1.73497 c -0.44012,-0.02 -0.23035,0.53832 0.46573,1.2408 0.76971,0.77621 1.08349,0.79041 0.8002,0.0363 -0.25596,-0.68251 -0.82615,-1.25708 -1.26628,-1.27703 l -4e-5,2e-5 z m -9.16387,-7.27552 c -3.62699,-2.84297 -5.42411,-3.91207 -4.2168,-2.50868 2.23769,2.60121 11.50175,9.63238 10.89597,8.2698 -0.19693,-0.44403 -3.20301,-3.03649 -6.6795,-5.76145 z m 25.78077,-23.12369 c -10.89921,-13.87062 -17.24941,-21.42004 -17.68332,-21.02255 -0.28524,0.26117 -0.90136,0.0556 -1.369,-0.45647 -0.46754,-0.51222 -1.97776,-0.92609 -3.35588,-0.91997 -3.98231,0.0178 -7.16734,4.3022 -15.39314,20.7062 -1.6089,3.20844 -2.83967,6.31974 -2.73521,6.91395 0.31724,1.80269 3.27009,3.27604 3.4969,1.74468 0.1099,-0.7421 1.35563,-3.21176 2.76824,-5.48822 3.49102,-5.62588 6.40715,-6.74023 16.2306,-6.20277 8.35024,0.45709 12.25871,1.94858 16.08389,6.13768 4.0173,4.3995 5.61739,3.2445 1.95759,-1.41305 z m -48.4237,32.9053 c 1.99967,-3.13358 0.22144,-3.211 -3.14037,-0.14126 -2.76647,2.52609 -2.95708,2.95406 -1.39037,3.17387 1.97455,0.27436 2.74594,-0.24197 4.53051,-3.03281 z m -3.11707,-7.93213 c -0.3034,-0.33231 -2.32165,1.00277 -4.47956,2.97325 -4.07467,3.72066 -4.15551,4.69824 -0.18223,2.20374 1.26496,-0.79424 2.49687,-1.43507 2.73752,-1.4241 0.84558,0.0403 2.48188,-3.14227 1.9256,-3.75147 z m 5.45784,-4.33663 c 0.39125,-0.78108 0.31513,-1.85412 -0.16922,-2.38457 -1.13265,-1.24048 -4.19779,1.50982 -4.09531,3.67475 0.12814,2.70819 2.64279,1.9474 4.26454,-1.2902 z m -10.5694,0.50377 c 0.26135,-0.96364 -2.85728,-4.86656 -11.57442,-14.48553 -18.79791,-20.74241 -17.1623,-19.22838 -18.72102,-17.329 -0.86497,1.05426 -0.95848,3.08015 -0.25959,5.62458 0.60078,2.18731 1.0285,4.32656 0.95038,4.75398 -0.0781,0.42739 0.46805,1.90915 1.21332,3.29296 0.74544,1.38371 1.34386,3.65284 1.32995,5.04252 -0.0265,2.65125 0.58281,3.60676 5.42089,8.50081 9.63692,9.74827 12.91252,11.83544 15.79457,10.06324 3.20453,-1.96975 5.47258,-4.09028 5.84545,-5.46398 z m 4.30687,-6.55724 c 0.2766,-1.01583 -0.6161,-2.32511 -3.05952,-4.48675 -1.89287,-1.67393 -7.50098,-6.77282 -12.45777,-11.32388 -4.95608,-4.55172 -9.98182,-8.81128 -11.17473,-9.47397 -2.596,-1.43778 -3.61574,-2.70039 12.24541,15.16143 10.36042,11.66729 12.1247,13.36473 13.02219,12.52877 0.57075,-0.53205 1.21363,-1.6127 1.42849,-2.40165 z m -5.67954,-49.54382 c -0.34766,-0.3808 -0.96209,-0.39104 -1.36531,-0.0229 -0.40327,0.36815 -0.25612,0.80518 0.32691,0.97104 0.58301,0.16589 1.19742,0.17617 1.36532,0.0229 0.16767,-0.15354 0.0208,-0.59033 -0.32691,-0.97106 z m -4.17021,-0.39604 c -0.96899,-1.06115 -6.5743,-1.67808 -6.61744,-0.72832 -0.0265,0.58276 6.71751,2.29581 7.22984,1.82804 0.11747,-0.10767 -0.15848,-0.60441 -0.61358,-1.10286 z m -1.52009,-5.83568 c -0.34765,-0.38076 -0.9621,-0.39101 -1.3653,-0.0228 -0.40329,0.36816 -0.25616,0.80516 0.32691,0.97105 0.58299,0.16588 1.19739,0.17614 1.36531,0.0229 0.16767,-0.15352 0.0208,-0.59032 -0.32692,-0.97108 z m -7.74458,3.40594 c -0.67032,-0.008 -2.21049,0.4592 -3.42236,1.03795 -1.97236,0.9413 -1.99541,1.0805 -0.21954,1.32732 1.0913,0.15162 2.63132,-0.31578 3.42236,-1.03796 0.86987,-0.79435 0.95664,-1.31886 0.21954,-1.32731 z m 25.08848,14.95007 c -0.6218,-0.17693 -1.11608,-0.63966 -1.09844,-1.02838 0.0431,-0.94875 2.19125,-1.30785 2.93709,-0.49107 0.80793,0.8847 -0.44121,1.91707 -1.83845,1.5196 z" />
  <path
     d="m 723.55082,669.54294 c -2.60493,-0.36939 -7.53054,-3.54653 -12.04436,-7.76988 -2.48113,-2.32147 -4.9429,-4.55229 -5.46799,-4.95496 -0.52787,-0.4055 -3.41669,-3.43825 -6.41985,-6.73977 l -5.45664,-5.99807 -4.90705,0.77282 c -2.69943,0.42503 -6.41268,0.79348 -8.24666,0.82626 -1.83928,0.0268 -4.26211,0.16181 -5.37751,0.30851 -2.56483,0.33245 -10.04634,-1.66194 -11.23598,-2.98962 -1.06912,-1.19314 -0.28661,-3.14649 1.38471,-3.45652 0.6528,-0.12143 1.52135,-0.65048 1.93,-1.1765 0.42387,-0.54554 2.43342,-0.44587 4.67865,0.23215 4.10341,1.23906 7.15156,0.79767 10.94776,-1.5851 1.49367,-0.9376 2.11155,-1.73331 1.84692,-2.3786 -0.21876,-0.53332 -3.29484,-4.34767 -6.83588,-8.4765 -7.96382,-9.28553 -8.02426,-11.56614 -0.0798,-3.00256 3.0505,3.28826 6.45712,6.95618 7.57012,8.15087 1.65938,1.78119 2.32803,2.00503 3.71491,1.2437 1.73857,-0.95433 5.3862,-6.14571 5.14672,-7.32477 -0.0738,-0.36348 -2.64324,-2.72803 -5.7099,-5.25462 -3.06667,-2.5266 -8.82087,-7.68803 -12.78715,-11.46983 -3.96627,-3.78182 -8.192,-7.60587 -9.39003,-8.4975 -2.0677,-1.53883 -2.26653,-1.5085 -3.90163,0.59508 -0.94757,1.21909 -1.73646,2.53674 -1.75311,2.92814 -0.0165,0.39132 2.12758,3.1859 4.76477,6.21016 5.97556,6.85217 6.08791,7.00844 5.4545,7.59787 -0.28561,0.26563 -2.5629,-1.89489 -5.06074,-4.80132 -2.49793,-2.90638 -5.07881,-5.39594 -5.73542,-5.53219 -0.65784,-0.13781 -2.18702,0.67691 -3.40156,1.80664 -2.66326,2.47826 -4.4777,3.28629 -5.31153,2.3557 -0.3392,-0.37862 -2.78239,-0.99976 -5.42921,-1.38031 -2.64684,-0.38059 -5.8423,-1.31101 -7.1011,-2.06761 -4.77284,-2.86884 -20.9743,-19.83127 -21.66249,-22.67991 -0.21353,-0.88501 -0.85428,-2.4082 -1.42344,-3.38504 -0.56891,-0.9769 -1.02517,-2.76396 -1.0134,-3.97162 0.0119,-1.20766 -0.25398,-2.41788 -0.59081,-2.68938 -0.3368,-0.27149 -0.32408,-0.39509 0.0282,-0.27458 1.36674,0.46726 2.17987,-1.36259 2.05854,-4.63284 -0.0696,-1.87802 0.17804,-3.56382 0.55048,-3.74607 0.37241,-0.18236 0.32738,-0.43286 -0.10004,-0.55682 -0.4275,-0.12395 -0.53125,-1.80213 -0.23054,-3.72925 l 0.54907,-3.50104 -6.51779,-6.5943 c -3.58431,-3.6264 -7.33019,-7.30459 -8.32455,-8.17269 -0.99381,-0.86869 -4.16033,-3.83601 -7.03565,-6.59501 -4.54242,-4.35763 -5.14747,-5.18044 -4.61014,-6.27286 0.36506,-0.74268 0.017,-1.9364 -0.85001,-2.91466 -0.80751,-0.91132 -1.57041,-2.24449 -1.69549,-2.96246 -0.47198,-2.71186 2.0245,-2.15566 6.6345,1.47815 11.22863,8.85066 13.13912,10.16408 16.65982,11.45301 2.31678,0.84795 5.25348,2.78517 7.76743,5.12384 l 4.04232,3.7604 6.13893,-3.09412 c 9.29818,-4.68662 20.90248,-9.30518 23.21938,-9.24176 2.77924,0.0762 3.47848,2.18347 1.37423,4.14158 -0.91636,0.85275 -2.02435,1.5337 -2.46191,1.51356 -0.43764,-0.0202 -2.23739,0.74938 -3.99942,1.71032 -3.0605,1.66899 -3.13897,1.7852 -1.75541,2.59892 0.79656,0.4685 2.4236,0.93219 3.61572,1.03057 4.36018,0.35962 9.04386,2.83615 10.89377,5.76022 0.95143,1.50391 1.61973,3.12916 1.485,3.61168 -0.3262,1.16833 -5.69267,0.73927 -10.75255,-0.8596 -2.24666,-0.70995 -6.95751,-1.52933 -10.46872,-1.82111 -4.901,-0.40694 -6.76701,-0.17335 -8.03403,1.00567 -0.9357,0.87074 -1.36026,1.85412 -0.98043,2.27101 2.42517,2.66201 15.5764,14.60565 20.2462,18.38708 3.09157,2.50342 5.81744,4.76871 6.05749,5.03399 0.47531,0.52527 1.73618,-1.39663 3.38373,-5.1559 3.94458,-9.00204 4.95937,-10.72035 8.68251,-14.69996 3.50597,-3.7475 4.52166,-4.45145 7.0961,-4.91824 1.65261,-0.29955 3.93903,-0.0696 5.08108,0.51148 2.64178,1.34409 15.87704,15.97797 16.4601,18.19945 0.2413,0.91941 2.04168,3.84302 4.00097,6.49684 1.95929,2.65381 4.49023,6.90172 5.62427,9.43981 1.1341,2.53803 2.60254,5.82361 3.2631,7.30124 1.3213,2.95556 2.67843,5.61397 6.20683,12.15845 4.20235,7.79461 4.41134,8.33819 5.13246,13.36043 0.59326,4.13107 -1.49766,12.21612 -3.4796,13.45379 -1.32496,0.82736 -1.14652,1.09256 5.06484,7.53001 12.23781,12.68317 11.99185,12.37398 10.75723,13.52289 -0.91059,0.84735 -2.22144,0.30003 -7.25659,-3.02975 -3.3799,-2.23511 -8.2433,-6.20488 -10.8071,-8.82115 -4.63663,-4.73156 -6.02235,-5.35105 -7.98137,-3.56832 -0.44424,0.40523 -3.10548,1.38325 -5.9128,2.17457 -2.80731,0.7914 -5.11257,1.62646 -5.12273,1.85579 -0.0377,0.84649 18.1572,18.30391 21.26333,20.40141 3.48998,2.35678 4.60534,2.27908 3.15646,-0.21992 -0.50655,-0.87371 -0.0236,-0.50534 1.07423,0.8185 2.11954,2.55708 1.99882,4.1525 -0.28975,3.82849 z m -2.73262,-44.68387 c -0.0479,-1.00156 -0.43521,-2.9645 -0.86057,-4.36211 -0.42542,-1.39756 -0.86024,-2.83284 -0.9665,-3.18937 -0.10611,-0.35658 -0.61986,1.58874 -1.14139,4.32287 -0.95965,5.03133 -0.0166,7.90841 1.98249,6.0482 0.59019,-0.54924 1.03389,-1.81799 0.98593,-2.81954 z m -17.95481,6.92537 c -4.31631,-3.68759 -4.57284,-3.76524 -5.86554,-1.77575 -0.63245,0.97336 -1.9245,2.62316 -2.87121,3.66624 -0.94671,1.04306 -2.02224,2.23019 -2.3901,2.638 -0.36789,0.40781 -0.19632,1.2688 0.38116,1.91329 1.17986,1.31672 5.47351,0.93227 5.88076,-0.52655 0.14092,-0.52243 0.50986,-0.67012 0.80725,-0.33818 0.30105,0.33587 1.62219,0.0695 2.93592,-0.592 4.25132,-2.14068 4.28294,-2.2819 1.11722,-4.98645 z m 10.73583,-17.18641 c -0.2654,-2.92681 -0.84364,-5.71473 -1.27912,-6.20075 -0.43598,-0.48653 -0.7756,-1.26701 -0.75514,-1.73413 0.0331,-0.86773 -3.75148,-8.01962 -4.08298,-7.71113 -0.0986,0.0921 0.0798,2.07907 0.3968,4.41595 0.317,2.33687 8e-4,6.29489 -0.7026,8.79566 -1.35931,4.83229 -0.91301,5.94737 3.78916,9.46601 1.71735,1.28511 2.08434,1.26988 2.56099,-0.106 0.30603,-0.88334 0.33659,-3.99918 0.068,-6.92412 z m -24.71925,23.99566 c -0.64102,-0.32739 -1.60366,-0.18162 -2.1434,0.32064 -0.89511,0.83285 -0.79533,0.93075 1.14056,1.11914 2.32479,0.22628 2.83447,-0.50345 1.00424,-1.43773 z m -4.83986,1.32988 c -0.11058,-0.12283 -0.98654,-0.16362 -1.94726,-0.0901 -1.58315,0.12115 -1.58486,0.16122 -0.0192,0.42815 1.64712,0.28244 2.40609,0.15223 1.9653,-0.33973 z m 19.58197,-34.89735 c -0.1786,-2.09346 -0.83214,-5.79814 -1.45183,-8.23249 -1.0288,-4.03916 -1.54397,-4.84252 -5.89275,-9.19 -6.14521,-6.1432 -11.38272,-10.20285 -12.84562,-9.95679 -2.47173,0.41965 -8.61377,3.88516 -11.28343,6.36939 -2.77472,2.58202 -2.78535,2.62692 -1.0732,4.53117 0.95113,1.05776 2.8032,2.6359 4.11573,3.50684 1.31255,0.87095 3.96316,3.051 5.89027,4.84461 3.55107,3.30503 18.43151,15.37591 20.14733,16.34332 1.45955,0.82297 2.78116,-3.70641 2.39642,-8.21337 z m -20.60724,-1.4854 c -0.36975,-0.0171 -0.19352,0.46089 0.39128,1.06232 0.64665,0.66455 0.91027,0.67671 0.67227,0.0311 -0.21504,-0.58434 -0.69407,-1.07625 -1.06384,-1.09334 l -3e-5,2e-5 z m -7.69883,-6.22894 c -3.04714,-2.43402 -4.55695,-3.34933 -3.54266,-2.14781 1.87995,2.22703 9.66296,8.24677 9.15403,7.0802 -0.16545,-0.38016 -2.69095,-2.5997 -5.61165,-4.93267 z m 21.65918,-19.79738 c -9.15675,-11.87536 -14.49174,-18.3388 -14.85628,-17.99849 -0.23963,0.2236 -0.75725,0.0476 -1.15013,-0.39081 -0.3928,-0.43854 -1.66158,-0.79287 -2.81938,-0.78763 -3.34565,0.0152 -6.02149,3.68333 -12.93222,17.72764 -1.35168,2.74691 -2.38569,5.41066 -2.29793,5.91939 0.26652,1.54338 2.7473,2.80479 2.93785,1.49371 0.0923,-0.63535 1.1389,-2.74975 2.32568,-4.69875 2.9329,-4.8166 5.38283,-5.77066 13.6358,-5.31051 7.01528,0.39134 10.2989,1.66828 13.51254,5.25479 3.37505,3.76663 4.71933,2.77778 1.64463,-1.20979 z m -40.68216,28.17192 c 1.67998,-2.68282 0.18603,-2.7491 -2.63832,-0.12094 -2.32419,2.16271 -2.48433,2.52912 -1.16809,2.71731 1.65888,0.23489 2.30694,-0.20716 3.80621,-2.59654 z m -2.61875,-6.79111 c -0.25489,-0.2845 -1.95048,0.85853 -3.76341,2.54556 -3.42324,3.18544 -3.49116,4.0224 -0.15309,1.88673 1.06273,-0.67999 2.09769,-1.22864 2.29987,-1.21924 0.71039,0.0345 2.0851,-2.69026 1.61775,-3.21183 z m 4.58529,-3.71281 c 0.3287,-0.66872 0.26475,-1.58741 -0.14216,-2.04155 -0.95157,-1.06204 -3.52669,1.29263 -3.44059,3.14614 0.10765,2.31862 2.22028,1.66727 3.58276,-1.10461 z m -8.87966,0.4313 c 0.21957,-0.82502 -2.40048,-4.16651 -9.724,-12.4018 -15.79268,-17.75865 -14.41855,-16.46241 -15.72808,-14.83625 -0.72669,0.9026 -0.80525,2.63707 -0.21809,4.81549 0.50473,1.87267 0.86407,3.70419 0.79844,4.07013 -0.0656,0.36591 0.39323,1.63452 1.01935,2.81927 0.62627,1.18466 1.12902,3.12738 1.11733,4.31716 -0.0223,2.26987 0.48963,3.08793 4.55425,7.27798 8.09625,8.346 10.84818,10.13293 13.26948,8.61566 2.69221,-1.68641 4.59767,-3.5019 4.91093,-4.678 z m 3.61833,-5.61399 c 0.23238,-0.8697 -0.5176,-1.99064 -2.57039,-3.84133 -1.59026,-1.43314 -6.30179,-5.79856 -10.46614,-9.69496 -4.16374,-3.89696 -8.38602,-7.54379 -9.38821,-8.11115 -2.18098,-1.23096 -3.03769,-2.31195 10.28772,12.98048 8.70409,9.98896 10.18632,11.44223 10.94032,10.72652 0.47951,-0.45551 1.01961,-1.38071 1.20012,-2.05617 z m -4.77155,-42.41701 c -0.29208,-0.32602 -0.80828,-0.33479 -1.14703,-0.0196 -0.3388,0.31519 -0.21518,0.68936 0.27464,0.83136 0.48981,0.14203 1.00599,0.15083 1.14705,0.0196 0.14086,-0.13146 0.0175,-0.50542 -0.27465,-0.83138 z m -3.50351,-0.33907 c -0.81408,-0.90851 -5.52326,-1.43669 -5.55951,-0.62355 -0.0223,0.49893 5.64358,1.96556 6.074,1.56508 0.0987,-0.0922 -0.13314,-0.51747 -0.51548,-0.94422 z m -1.27707,-4.99623 c -0.29207,-0.32599 -0.80829,-0.33476 -1.14703,-0.0195 -0.33882,0.3152 -0.21521,0.68934 0.27464,0.83137 0.48979,0.14202 1.00597,0.1508 1.14704,0.0196 0.14087,-0.13143 0.0175,-0.5054 -0.27465,-0.83139 z m -6.50645,2.916 c -0.56316,-0.007 -1.8571,0.39315 -2.87523,0.88865 -1.65703,0.80589 -1.6764,0.92507 -0.18444,1.13638 0.91684,0.12981 2.21065,-0.27035 2.87523,-0.88865 0.7308,-0.68008 0.8037,-1.12914 0.18444,-1.13638 z m 21.07756,12.79953 c -0.52239,-0.15148 -0.93765,-0.54765 -0.92283,-0.88045 0.0362,-0.81228 1.84093,-1.11972 2.46754,-0.42043 0.67876,0.75744 -0.37068,1.6413 -1.54454,1.30101 z"
     style="fill:#000000;stroke-width:0.7950961"
     id="path5105"
     inkscape:connector-curvature="0"
     inkscape:transform-center-x="135.65826"
     inkscape:transform-center-y="21.037345" />
  <path
     inkscape:transform-center-y="17.502698"
     inkscape:transform-center-x="119.52387"
     inkscape:connector-curvature="0"
     id="path5107"
     style="fill:#000000;stroke-width:0.68073976"
     d="m 837.35885,609.8745 c -2.29512,-0.30733 -6.63491,-2.95065 -10.61188,-6.46441 -2.18604,-1.93142 -4.35503,-3.78742 -4.81767,-4.12244 -0.46509,-0.33736 -3.01033,-2.86056 -5.65631,-5.60737 l -4.80767,-4.99028 -4.32344,0.64297 c -2.37837,0.35362 -5.65,0.66016 -7.26585,0.68743 -1.62053,0.0223 -3.75521,0.13463 -4.73795,0.25668 -2.25979,0.27659 -8.8515,-1.38271 -9.89965,-2.48731 -0.94196,-0.99268 -0.25252,-2.61783 1.22002,-2.87577 0.57516,-0.10103 1.34041,-0.54119 1.70046,-0.97883 0.37346,-0.45387 2.14401,-0.37095 4.12221,0.19315 3.61537,1.03088 6.301,0.66365 9.6457,-1.31878 1.31603,-0.78006 1.86042,-1.44208 1.62726,-1.97895 -0.19274,-0.44371 -2.90297,-3.61718 -6.02286,-7.0523 -7.01666,-7.7254 -7.06991,-9.62282 -0.0703,-2.49807 2.68769,2.73577 5.68915,5.78741 6.66978,6.78138 1.46202,1.48191 2.05115,1.66815 3.27308,1.03473 1.5318,-0.79398 4.7456,-5.11312 4.53461,-6.09408 -0.065,-0.30241 -2.32888,-2.26967 -5.03081,-4.37175 -2.70194,-2.10209 -7.77177,-6.3963 -11.26633,-9.5427 -3.49455,-3.1464 -7.2177,-6.32795 -8.27324,-7.06977 -1.82179,-1.28028 -1.99697,-1.25504 -3.4376,0.4951 -0.83487,1.01426 -1.52994,2.11052 -1.54461,2.43616 -0.0145,0.32557 1.87454,2.65061 4.19808,5.16674 5.26487,5.70089 5.36386,5.8309 4.80578,6.3213 -0.25164,0.221 -2.25808,-1.57652 -4.45885,-3.99461 -2.20084,-2.41806 -4.47477,-4.48933 -5.05329,-4.60269 -0.5796,-0.11466 -1.92691,0.56318 -2.997,1.50309 -2.34651,2.06187 -3.94515,2.73414 -4.67981,1.9599 -0.29886,-0.315 -2.45147,-0.83178 -4.7835,-1.14839 -2.33204,-0.31664 -5.14745,-1.09074 -6.25654,-1.72021 -4.20519,-2.38683 -18.47976,-16.49927 -19.0861,-18.86929 -0.18813,-0.73631 -0.75268,-2.00358 -1.25414,-2.81629 -0.50125,-0.81277 -0.90325,-2.29957 -0.89288,-3.30432 0.0105,-1.00475 -0.22377,-2.01164 -0.52054,-2.23752 -0.29674,-0.22587 -0.28554,-0.32871 0.0249,-0.22844 1.20418,0.38875 1.92061,-1.13366 1.81371,-3.85445 -0.0613,-1.56248 0.15686,-2.96503 0.48501,-3.11666 0.32811,-0.15172 0.28844,-0.36013 -0.0881,-0.46326 -0.37665,-0.10313 -0.46806,-1.49935 -0.20312,-3.10268 l 0.48377,-2.9128 -5.74261,-5.48634 c -3.15801,-3.0171 -6.45838,-6.07729 -7.33448,-6.79953 -0.87562,-0.72274 -3.66553,-3.1915 -6.19888,-5.48694 -4.00217,-3.62547 -4.53526,-4.31003 -4.06184,-5.21891 0.32164,-0.61789 0.015,-1.61105 -0.74892,-2.42494 -0.71147,-0.7582 -1.38363,-1.86738 -1.49384,-2.46472 -0.41584,-2.25622 1.78372,-1.79347 5.84544,1.2298 9.89317,7.36359 11.57644,8.45633 14.67842,9.5287 2.04123,0.70548 4.62866,2.31721 6.84362,4.26295 l 3.56155,3.12858 5.40881,-2.57425 c 8.19232,-3.89919 18.41648,-7.74175 20.45782,-7.68898 2.4487,0.0634 3.06478,1.81661 1.21079,3.44572 -0.80737,0.70947 -1.78358,1.27601 -2.1691,1.25925 -0.38559,-0.0168 -1.97129,0.62348 -3.52376,1.42296 -2.69651,1.38857 -2.76564,1.48526 -1.54663,2.16226 0.70182,0.38978 2.13535,0.77556 3.18569,0.85741 3.84161,0.2992 7.96824,2.35963 9.59814,4.7924 0.83827,1.25123 1.42709,2.60341 1.30838,3.00486 -0.2874,0.97203 -5.01562,0.61506 -9.47371,-0.71517 -1.97946,-0.59067 -6.13004,-1.27238 -9.22365,-1.51514 -4.3181,-0.33856 -5.96218,-0.14422 -7.07851,0.8367 -0.82442,0.72444 -1.19848,1.5426 -0.86383,1.88944 2.13674,2.21475 13.72385,12.15165 17.83826,15.29773 2.72388,2.0828 5.12555,3.96748 5.33705,4.18819 0.41878,0.43702 1.52969,-1.16197 2.98129,-4.28962 3.47544,-7.48953 4.36954,-8.91914 7.64987,-12.2301 3.089,-3.11786 3.98389,-3.70353 6.25214,-4.09189 1.45606,-0.24922 3.47055,-0.0579 4.47677,0.42554 2.32759,1.11826 13.98873,13.29339 14.50245,15.14162 0.2126,0.76493 1.79885,3.19733 3.52512,5.40526 1.72627,2.20792 3.95619,5.74211 4.95536,7.85375 0.99921,2.1116 2.29301,4.84515 2.87501,6.07451 1.16415,2.45897 2.35987,4.67072 5.46863,10.11561 3.70255,6.48498 3.88668,6.93723 4.52204,11.11565 0.5227,3.43697 -1.31954,10.16359 -3.06576,11.19331 -1.16738,0.68835 -1.01016,0.90899 4.46246,6.26484 10.78233,10.55217 10.56562,10.29493 9.47784,11.2508 -0.80229,0.70499 -1.95724,0.24962 -6.39354,-2.52069 -2.97792,-1.85958 -7.2629,-5.16235 -9.52178,-7.33905 -4.08518,-3.93657 -5.30609,-4.45197 -7.03212,-2.96877 -0.3914,0.33714 -2.73613,1.15083 -5.20957,1.8092 -2.47343,0.65843 -4.50452,1.35319 -4.51347,1.54398 -0.0332,0.70427 15.99771,15.22853 18.73442,16.97362 3.0749,1.9608 4.05761,1.89615 2.78105,-0.18297 -0.44631,-0.72691 -0.0208,-0.42044 0.94647,0.68098 1.86745,2.12744 1.76109,3.4548 -0.25529,3.18523 z m -2.40762,-37.1762 c -0.0422,-0.83328 -0.38345,-2.46641 -0.75822,-3.62919 -0.37482,-1.16275 -0.75793,-2.35688 -0.85155,-2.6535 -0.0935,-0.29667 -0.54614,1.3218 -1.00564,3.59655 -0.84552,4.18598 -0.0146,6.57966 1.74671,5.03199 0.51999,-0.45695 0.91092,-1.51253 0.86867,-2.3458 z m -15.81939,5.76179 c -3.80295,-3.06801 -4.02897,-3.13261 -5.16793,-1.47739 -0.55723,0.80982 -1.69561,2.18242 -2.52972,3.05024 -0.83412,0.86781 -1.78173,1.85548 -2.10584,2.19477 -0.32414,0.33929 -0.17297,1.05562 0.33582,1.59183 1.03954,1.09549 4.82253,0.77563 5.18135,-0.43808 0.12416,-0.43466 0.44922,-0.55753 0.71124,-0.28136 0.26524,0.27944 1.42926,0.0578 2.58674,-0.49254 3.7457,-1.781 3.77356,-1.8985 0.98434,-4.14863 z m 9.45899,-14.29879 c -0.23384,-2.43505 -0.74331,-4.75456 -1.12699,-5.15892 -0.38413,-0.40478 -0.68336,-1.05413 -0.66533,-1.44276 0.0292,-0.72194 -3.30531,-6.67218 -3.59738,-6.41553 -0.0869,0.0766 0.0703,1.72975 0.34961,3.674 0.2793,1.94423 7e-4,5.23723 -0.61904,7.31783 -1.19764,4.02038 -0.80442,4.94811 3.3385,7.87556 1.5131,1.06918 1.83645,1.05651 2.25641,-0.0882 0.26963,-0.73493 0.29656,-3.32725 0.0599,-5.76075 z m -21.77931,19.96397 c -0.56478,-0.27239 -1.41293,-0.15111 -1.88848,0.26676 -0.78865,0.69292 -0.70074,0.77437 1.00491,0.93111 2.04829,0.18826 2.49736,-0.41886 0.8848,-1.19617 z m -4.26424,1.10643 c -0.0974,-0.10219 -0.86921,-0.13613 -1.71567,-0.075 -1.39486,0.1008 -1.39636,0.13413 -0.0169,0.35621 1.45122,0.23499 2.11992,0.12666 1.73156,-0.28264 z m 17.25302,-29.03398 c -0.15736,-1.74172 -0.73317,-4.82395 -1.27916,-6.84928 -0.90644,-3.36051 -1.36034,-4.0289 -5.1919,-7.64592 -5.41434,-5.11104 -10.02894,-8.48859 -11.31785,-8.28388 -2.17776,0.34914 -7.58931,3.23239 -9.94146,5.29922 -2.44471,2.1482 -2.45408,2.18555 -0.94556,3.76986 0.83801,0.88003 2.46981,2.19302 3.62623,2.91763 1.15645,0.72461 3.49181,2.53837 5.18973,4.03063 3.12873,2.74972 16.23939,12.79248 17.75114,13.59735 1.28596,0.6847 2.45039,-3.08367 2.1114,-6.83338 z m -18.15635,-1.23582 c -0.32578,-0.0142 -0.17051,0.38345 0.34474,0.88383 0.56974,0.55289 0.80201,0.56301 0.59232,0.0259 -0.18947,-0.48616 -0.61153,-0.89542 -0.93732,-0.90964 l -2e-5,2e-5 z m -6.78319,-5.18237 c -2.68473,-2.02506 -4.01497,-2.78659 -3.12132,-1.78694 1.65637,1.85285 8.51372,6.86116 8.06532,5.8906 -0.14578,-0.31629 -2.37091,-2.16291 -4.94424,-4.1039 z m 19.08319,-16.47107 c -8.06771,-9.8801 -12.76819,-15.25756 -13.08938,-14.97443 -0.21113,0.18603 -0.66718,0.0396 -1.01334,-0.32515 -0.34608,-0.36486 -1.46396,-0.65965 -2.48406,-0.65529 -2.94774,0.0126 -5.30533,3.06446 -11.39415,14.74908 -1.19092,2.28538 -2.10195,4.50158 -2.02463,4.92483 0.23482,1.28406 2.42056,2.33354 2.58844,1.24274 0.0813,-0.5286 1.00345,-2.28774 2.04908,-3.90928 2.58408,-4.00732 4.74263,-4.80108 12.01405,-4.41825 6.18093,0.32559 9.07402,1.38798 11.90545,4.37189 2.97365,3.13377 4.15805,2.31107 1.44903,-1.00652 z m -35.8437,23.43854 c 1.48017,-2.23206 0.1639,-2.28721 -2.32454,-0.10062 -2.04776,1.79933 -2.18886,2.10418 -1.02916,2.26075 1.46158,0.19543 2.03257,-0.17235 3.35352,-2.16027 z m -2.30729,-5.65009 c -0.22458,-0.2367 -1.71851,0.71428 -3.31582,2.11786 -3.0161,2.65023 -3.07595,3.34657 -0.13488,1.56973 0.93633,-0.56574 1.8482,-1.02221 2.02634,-1.01439 0.6259,0.0287 1.83711,-2.23825 1.42534,-2.67218 z m 4.03994,-3.08899 c 0.28961,-0.55636 0.23326,-1.3207 -0.12525,-1.69853 -0.8384,-0.8836 -3.10725,1.07544 -3.03139,2.61753 0.0948,1.92905 1.95621,1.38714 3.15665,-0.91902 z m -7.82357,0.35883 c 0.19345,-0.6864 -2.11498,-3.46646 -8.56749,-10.31808 -13.91441,-14.77488 -12.70371,-13.69643 -13.85749,-12.34349 -0.64027,0.75094 -0.70948,2.19399 -0.19215,4.0064 0.4447,1.55803 0.7613,3.08182 0.70347,3.38628 -0.0578,0.30443 0.34647,1.35989 0.89812,2.34558 0.55179,0.98561 0.99474,2.60192 0.98444,3.5918 -0.0196,1.88849 0.4314,2.5691 4.0126,6.05515 7.13334,6.94373 9.55797,8.43042 11.6913,7.16808 2.37201,-1.40307 4.05085,-2.91352 4.32686,-3.89202 z m 3.18799,-4.67074 c 0.20474,-0.72357 -0.45604,-1.65617 -2.26469,-3.19592 -1.40112,-1.19234 -5.55229,-4.8243 -9.22136,-8.06603 -3.66854,-3.2422 -7.38865,-6.2763 -8.27164,-6.74834 -1.92159,-1.02413 -2.67641,-1.9235 9.06416,10.79954 7.66889,8.31063 8.97483,9.51973 9.63916,8.92427 0.42248,-0.37898 0.89834,-1.14873 1.05738,-1.7107 z m -4.20406,-35.2902 c -0.25734,-0.27125 -0.71214,-0.27854 -1.01061,-0.0163 -0.2985,0.26223 -0.18958,0.57354 0.24198,0.69168 0.43156,0.11816 0.88635,0.12549 1.01063,0.0163 0.12411,-0.10937 0.0154,-0.4205 -0.24199,-0.69169 z m -3.08682,-0.2821 c -0.71726,-0.75587 -4.86636,-1.1953 -4.8983,-0.51879 -0.0196,0.41511 4.97237,1.63532 5.3516,1.30212 0.087,-0.0767 -0.11731,-0.43052 -0.45417,-0.78557 z m -1.12519,-4.15678 c -0.25733,-0.27122 -0.71215,-0.27851 -1.01061,-0.0162 -0.29852,0.26224 -0.18961,0.57352 0.24198,0.69168 0.43154,0.11816 0.88633,0.12547 1.01062,0.0163 0.12412,-0.10935 0.0154,-0.42048 -0.24199,-0.6917 z m -5.73261,2.42606 c -0.49618,-0.006 -1.63623,0.3271 -2.53327,0.73934 -1.45996,0.67049 -1.47702,0.76965 -0.16251,0.94545 0.8078,0.108 1.94773,-0.22492 2.53327,-0.73934 0.64389,-0.56581 0.70812,-0.93942 0.16251,-0.94545 z m 18.57074,10.64899 c -0.46027,-0.12603 -0.82614,-0.45564 -0.81308,-0.73252 0.0319,-0.67581 1.62198,-0.93159 2.17407,-0.34979 0.59803,0.63017 -0.3266,1.36553 -1.36084,1.08241 z" />
  <path
     d="m 700.45775,894.20755 c -2.29512,-0.30733 -6.63491,-2.95065 -10.61188,-6.46441 -2.18604,-1.93142 -4.35503,-3.78742 -4.81767,-4.12244 -0.46509,-0.33736 -3.01033,-2.86056 -5.65631,-5.60737 l -4.80767,-4.99028 -4.32344,0.64297 c -2.37837,0.35362 -5.65,0.66016 -7.26585,0.68743 -1.62053,0.0223 -3.75521,0.13463 -4.73795,0.25668 -2.25979,0.27659 -8.8515,-1.38271 -9.89965,-2.48731 -0.94196,-0.99268 -0.25252,-2.61783 1.22002,-2.87577 0.57516,-0.10103 1.34041,-0.54119 1.70046,-0.97883 0.37346,-0.45387 2.14401,-0.37095 4.12221,0.19315 3.61537,1.03088 6.301,0.66365 9.6457,-1.31878 1.31603,-0.78006 1.86042,-1.44208 1.62726,-1.97895 -0.19274,-0.44371 -2.90297,-3.61718 -6.02286,-7.0523 -7.01666,-7.7254 -7.06991,-9.62282 -0.0703,-2.49807 2.68769,2.73577 5.68915,5.78741 6.66978,6.78138 1.46202,1.48191 2.05115,1.66815 3.27308,1.03473 1.5318,-0.79398 4.7456,-5.11312 4.53461,-6.09408 -0.065,-0.30241 -2.32888,-2.26967 -5.03081,-4.37175 -2.70194,-2.10209 -7.77177,-6.3963 -11.26633,-9.5427 -3.49455,-3.1464 -7.2177,-6.32795 -8.27324,-7.06977 -1.82179,-1.28028 -1.99697,-1.25504 -3.4376,0.4951 -0.83487,1.01426 -1.52994,2.11052 -1.54461,2.43616 -0.0145,0.32557 1.87454,2.65061 4.19808,5.16674 5.26487,5.70089 5.36386,5.8309 4.80578,6.3213 -0.25164,0.221 -2.25808,-1.57652 -4.45885,-3.99461 -2.20084,-2.41806 -4.47477,-4.48933 -5.05329,-4.60269 -0.5796,-0.11466 -1.92691,0.56318 -2.997,1.50309 -2.34651,2.06187 -3.94515,2.73414 -4.67981,1.9599 -0.29886,-0.315 -2.45147,-0.83178 -4.7835,-1.14839 -2.33204,-0.31664 -5.14745,-1.09074 -6.25654,-1.72021 -4.20519,-2.38683 -18.47976,-16.49927 -19.0861,-18.86929 -0.18813,-0.73631 -0.75268,-2.00358 -1.25414,-2.81629 -0.50125,-0.81277 -0.90325,-2.29957 -0.89288,-3.30432 0.0105,-1.00475 -0.22377,-2.01164 -0.52054,-2.23752 -0.29674,-0.22587 -0.28554,-0.32871 0.0249,-0.22844 1.20418,0.38875 1.92061,-1.13366 1.81371,-3.85445 -0.0613,-1.56248 0.15686,-2.96503 0.48501,-3.11666 0.32811,-0.15172 0.28844,-0.36013 -0.0881,-0.46326 -0.37665,-0.10313 -0.46806,-1.49935 -0.20312,-3.10268 l 0.48377,-2.9128 -5.74261,-5.48634 c -3.15801,-3.0171 -6.45838,-6.07729 -7.33448,-6.79953 -0.87562,-0.72274 -3.66553,-3.1915 -6.19888,-5.48694 -4.00217,-3.62547 -4.53526,-4.31003 -4.06184,-5.21891 0.32164,-0.61789 0.015,-1.61105 -0.74892,-2.42494 -0.71147,-0.7582 -1.38363,-1.86738 -1.49384,-2.46472 -0.41584,-2.25622 1.78372,-1.79347 5.84544,1.2298 9.89317,7.36359 11.57644,8.45633 14.67842,9.5287 2.04123,0.70548 4.62866,2.31721 6.84362,4.26295 l 3.56155,3.12858 5.40881,-2.57425 c 8.19232,-3.89919 18.41648,-7.74175 20.45782,-7.68898 2.4487,0.0634 3.06478,1.81661 1.21079,3.44572 -0.80737,0.70947 -1.78358,1.27601 -2.1691,1.25925 -0.38559,-0.0168 -1.97129,0.62348 -3.52376,1.42296 -2.69651,1.38857 -2.76564,1.48526 -1.54663,2.16226 0.70182,0.38978 2.13535,0.77556 3.18569,0.85741 3.84161,0.2992 7.96824,2.35963 9.59814,4.7924 0.83827,1.25123 1.42709,2.60341 1.30838,3.00486 -0.2874,0.97203 -5.01562,0.61506 -9.47371,-0.71517 -1.97946,-0.59067 -6.13004,-1.27238 -9.22365,-1.51514 -4.3181,-0.33856 -5.96218,-0.14422 -7.07851,0.8367 -0.82442,0.72444 -1.19848,1.5426 -0.86383,1.88944 2.13674,2.21475 13.72385,12.15165 17.83826,15.29773 2.72388,2.0828 5.12555,3.96748 5.33705,4.18819 0.41878,0.43702 1.52969,-1.16197 2.98129,-4.28962 3.47544,-7.48953 4.36954,-8.91914 7.64987,-12.2301 3.089,-3.11786 3.98389,-3.70353 6.25214,-4.09189 1.45606,-0.24922 3.47055,-0.0579 4.47677,0.42554 2.32759,1.11826 13.98873,13.29339 14.50245,15.14162 0.2126,0.76493 1.79885,3.19733 3.52512,5.40526 1.72627,2.20792 3.95619,5.74211 4.95536,7.85375 0.99921,2.1116 2.29301,4.84515 2.87501,6.07451 1.16415,2.45897 2.35987,4.67072 5.46863,10.11561 3.70255,6.48498 3.88668,6.93723 4.52204,11.11565 0.5227,3.43697 -1.31954,10.16359 -3.06576,11.19331 -1.16738,0.68835 -1.01016,0.90899 4.46246,6.26484 10.78233,10.55217 10.56562,10.29493 9.47784,11.2508 -0.80229,0.70499 -1.95724,0.24962 -6.39354,-2.52069 -2.97792,-1.85958 -7.2629,-5.16235 -9.52178,-7.33905 -4.08518,-3.93657 -5.30609,-4.45197 -7.03212,-2.96877 -0.3914,0.33714 -2.73613,1.15083 -5.20957,1.8092 -2.47343,0.65843 -4.50452,1.35319 -4.51347,1.54398 -0.0332,0.70427 15.99771,15.22853 18.73442,16.97362 3.0749,1.9608 4.05761,1.89615 2.78105,-0.18297 -0.44631,-0.72691 -0.0208,-0.42044 0.94647,0.68098 1.86745,2.12744 1.76109,3.4548 -0.25529,3.18523 z m -2.40762,-37.1762 c -0.0422,-0.83328 -0.38345,-2.46641 -0.75822,-3.62919 -0.37482,-1.16275 -0.75793,-2.35688 -0.85155,-2.6535 -0.0935,-0.29667 -0.54614,1.3218 -1.00564,3.59655 -0.84552,4.18598 -0.0146,6.57966 1.74671,5.03199 0.51999,-0.45695 0.91092,-1.51253 0.86867,-2.3458 z m -15.81939,5.76179 c -3.80295,-3.06801 -4.02897,-3.13261 -5.16793,-1.47739 -0.55723,0.80982 -1.69561,2.18242 -2.52972,3.05024 -0.83412,0.86781 -1.78173,1.85548 -2.10584,2.19477 -0.32414,0.33929 -0.17297,1.05562 0.33582,1.59183 1.03954,1.09549 4.82253,0.77563 5.18135,-0.43808 0.12416,-0.43466 0.44922,-0.55753 0.71124,-0.28136 0.26524,0.27944 1.42926,0.0578 2.58674,-0.49254 3.7457,-1.781 3.77356,-1.8985 0.98434,-4.14863 z m 9.45899,-14.29879 c -0.23384,-2.43505 -0.74331,-4.75456 -1.12699,-5.15892 -0.38413,-0.40478 -0.68336,-1.05413 -0.66533,-1.44276 0.0292,-0.72194 -3.30531,-6.67218 -3.59738,-6.41553 -0.0869,0.0766 0.0703,1.72975 0.34961,3.674 0.2793,1.94423 7e-4,5.23723 -0.61904,7.31783 -1.19764,4.02038 -0.80442,4.94811 3.3385,7.87556 1.5131,1.06918 1.83645,1.05651 2.25641,-0.0882 0.26963,-0.73493 0.29656,-3.32725 0.0599,-5.76075 z m -21.77931,19.96397 c -0.56478,-0.27239 -1.41293,-0.15111 -1.88848,0.26676 -0.78865,0.69292 -0.70074,0.77437 1.00491,0.93111 2.04829,0.18826 2.49736,-0.41886 0.8848,-1.19617 z m -4.26424,1.10643 c -0.0974,-0.10219 -0.86921,-0.13613 -1.71567,-0.075 -1.39486,0.1008 -1.39636,0.13413 -0.0169,0.35621 1.45122,0.23499 2.11992,0.12666 1.73156,-0.28264 z m 17.25302,-29.03398 c -0.15736,-1.74172 -0.73317,-4.82395 -1.27916,-6.84928 -0.90644,-3.36051 -1.36034,-4.0289 -5.1919,-7.64592 -5.41434,-5.11104 -10.02894,-8.48859 -11.31785,-8.28388 -2.17776,0.34914 -7.58931,3.23239 -9.94146,5.29922 -2.44471,2.1482 -2.45408,2.18555 -0.94556,3.76986 0.83801,0.88003 2.46981,2.19302 3.62623,2.91763 1.15645,0.72461 3.49181,2.53837 5.18973,4.03063 3.12873,2.74972 16.23939,12.79248 17.75114,13.59735 1.28596,0.6847 2.45039,-3.08367 2.1114,-6.83338 z m -18.15635,-1.23582 c -0.32578,-0.0142 -0.17051,0.38345 0.34474,0.88383 0.56974,0.55289 0.80201,0.56301 0.59232,0.0259 -0.18947,-0.48616 -0.61153,-0.89542 -0.93732,-0.90964 l -2e-5,2e-5 z m -6.78319,-5.18237 c -2.68473,-2.02506 -4.01497,-2.78659 -3.12132,-1.78694 1.65637,1.85285 8.51372,6.86116 8.06532,5.8906 -0.14578,-0.31629 -2.37091,-2.16291 -4.94424,-4.1039 z m 19.08319,-16.47107 c -8.06771,-9.8801 -12.76819,-15.25756 -13.08938,-14.97443 -0.21113,0.18603 -0.66718,0.0396 -1.01334,-0.32515 -0.34608,-0.36486 -1.46396,-0.65965 -2.48406,-0.65529 -2.94774,0.0126 -5.30533,3.06446 -11.39415,14.74908 -1.19092,2.28538 -2.10195,4.50158 -2.02463,4.92483 0.23482,1.28406 2.42056,2.33354 2.58844,1.24274 0.0813,-0.5286 1.00345,-2.28774 2.04908,-3.90928 2.58408,-4.00732 4.74263,-4.80108 12.01405,-4.41825 6.18093,0.32559 9.07402,1.38798 11.90545,4.37189 2.97365,3.13377 4.15805,2.31107 1.44903,-1.00652 z m -35.8437,23.43854 c 1.48017,-2.23206 0.1639,-2.28721 -2.32454,-0.10062 -2.04776,1.79933 -2.18886,2.10418 -1.02916,2.26075 1.46158,0.19543 2.03257,-0.17235 3.35352,-2.16027 z m -2.30729,-5.65009 c -0.22458,-0.2367 -1.71851,0.71428 -3.31582,2.11786 -3.0161,2.65023 -3.07595,3.34657 -0.13488,1.56973 0.93633,-0.56574 1.8482,-1.02221 2.02634,-1.01439 0.6259,0.0287 1.83711,-2.23825 1.42534,-2.67218 z m 4.03994,-3.08899 c 0.28961,-0.55636 0.23326,-1.3207 -0.12525,-1.69853 -0.8384,-0.8836 -3.10725,1.07544 -3.03139,2.61753 0.0948,1.92905 1.95621,1.38714 3.15665,-0.91902 z m -7.82357,0.35883 c 0.19345,-0.6864 -2.11498,-3.46646 -8.56749,-10.31808 -13.91441,-14.77488 -12.70371,-13.69643 -13.85749,-12.34349 -0.64027,0.75094 -0.70948,2.19399 -0.19215,4.0064 0.4447,1.55803 0.7613,3.08182 0.70347,3.38628 -0.0578,0.30443 0.34647,1.35989 0.89812,2.34558 0.55179,0.98561 0.99474,2.60192 0.98444,3.5918 -0.0196,1.88849 0.4314,2.5691 4.0126,6.05515 7.13334,6.94373 9.55797,8.43042 11.6913,7.16808 2.37201,-1.40307 4.05085,-2.91352 4.32686,-3.89202 z m 3.18799,-4.67074 c 0.20474,-0.72357 -0.45604,-1.65617 -2.26469,-3.19592 -1.40112,-1.19234 -5.55229,-4.8243 -9.22136,-8.06603 -3.66854,-3.2422 -7.38865,-6.2763 -8.27164,-6.74834 -1.92159,-1.02413 -2.67641,-1.9235 9.06416,10.79954 7.66889,8.31063 8.97483,9.51973 9.63916,8.92427 0.42248,-0.37898 0.89834,-1.14873 1.05738,-1.7107 z m -4.20406,-35.2902 c -0.25734,-0.27125 -0.71214,-0.27854 -1.01061,-0.0163 -0.2985,0.26223 -0.18958,0.57354 0.24198,0.69168 0.43156,0.11816 0.88635,0.12549 1.01063,0.0163 0.12411,-0.10937 0.0154,-0.4205 -0.24199,-0.69169 z m -3.08682,-0.2821 c -0.71726,-0.75587 -4.86636,-1.1953 -4.8983,-0.51879 -0.0196,0.41511 4.97237,1.63532 5.3516,1.30212 0.087,-0.0767 -0.11731,-0.43052 -0.45417,-0.78557 z m -1.12519,-4.15678 c -0.25733,-0.27122 -0.71215,-0.27851 -1.01061,-0.0162 -0.29852,0.26224 -0.18961,0.57352 0.24198,0.69168 0.43154,0.11816 0.88633,0.12547 1.01062,0.0163 0.12412,-0.10935 0.0154,-0.42048 -0.24199,-0.6917 z m -5.73261,2.42606 c -0.49618,-0.006 -1.63623,0.3271 -2.53327,0.73934 -1.45996,0.67049 -1.47702,0.76965 -0.16251,0.94545 0.8078,0.108 1.94773,-0.22492 2.53327,-0.73934 0.64389,-0.56581 0.70812,-0.93942 0.16251,-0.94545 z m 18.57074,10.64899 c -0.46027,-0.12603 -0.82614,-0.45564 -0.81308,-0.73252 0.0319,-0.67581 1.62198,-0.93159 2.17407,-0.34979 0.59803,0.63017 -0.3266,1.36553 -1.36084,1.08241 z"
     style="fill:#000000;stroke-width:0.68073976"
     id="path5109"
     inkscape:connector-curvature="0"
     inkscape:transform-center-x="119.52387"
     inkscape:transform-center-y="17.502698" />
  <path
     inkscape:transform-center-y="15.482903"
     inkscape:transform-center-x="109.84332"
     inkscape:connector-curvature="0"
     id="path5111"
     style="fill:#000000;stroke-width:0.61378217"
     d="m 869.83877,820.49523 c -2.10923,-0.27187 -6.09753,-2.61015 -9.7524,-5.71843 -2.00898,-1.70853 -4.0023,-3.35035 -4.42747,-3.64671 -0.42742,-0.29843 -2.76651,-2.53046 -5.19819,-4.96029 l -4.41828,-4.4144 -3.97328,0.56877 c -2.18574,0.31281 -5.19239,0.58398 -6.67737,0.6081 -1.48928,0.0197 -3.45106,0.1191 -4.35421,0.22706 -2.07676,0.24467 -8.13459,-1.22315 -9.09785,-2.20028 -0.86567,-0.87812 -0.23207,-2.31573 1.12121,-2.5439 0.52858,-0.0894 1.23185,-0.47874 1.56273,-0.86588 0.34322,-0.40149 1.97037,-0.32814 3.78835,0.17086 3.32255,0.91192 5.79066,0.58707 8.86446,-1.16659 1.20945,-0.69004 1.70974,-1.27567 1.49547,-1.75058 -0.17713,-0.39251 -2.66785,-3.19976 -5.53505,-6.23847 -6.44837,-6.8339 -6.4973,-8.51236 -0.0646,-2.2098 2.47001,2.42007 5.22837,5.11955 6.12958,5.99882 1.3436,1.3109 1.88502,1.47564 3.00798,0.91532 1.40774,-0.70236 4.36124,-4.52307 4.16734,-5.39083 -0.0597,-0.26751 -2.14026,-2.00775 -4.62335,-3.86725 -2.4831,-1.85951 -7.14231,-5.65817 -10.35384,-8.44148 -3.21152,-2.78331 -6.63312,-5.59771 -7.60317,-6.25393 -1.67424,-1.13253 -1.83523,-1.11021 -3.15918,0.43797 -0.76725,0.89721 -1.40602,1.86697 -1.41951,2.15503 -0.0133,0.288 1.72272,2.34473 3.85807,4.5705 4.83845,5.04301 4.92943,5.15802 4.41655,5.59183 -0.23126,0.19549 -2.07519,-1.39459 -4.09772,-3.53364 -2.02259,-2.13902 -4.11234,-3.97126 -4.64401,-4.07154 -0.53266,-0.10143 -1.77084,0.49819 -2.75426,1.32963 -2.15646,1.82394 -3.62563,2.41863 -4.30078,1.73373 -0.27466,-0.27865 -2.25292,-0.73579 -4.39608,-1.01586 -2.14316,-0.2801 -4.73054,-0.96487 -5.7498,-1.5217 -3.8646,-2.1114 -16.98304,-14.59527 -17.54027,-16.69179 -0.17289,-0.65134 -0.69172,-1.77237 -1.15256,-2.4913 -0.46065,-0.71897 -0.83009,-2.0342 -0.82056,-2.923 0.01,-0.8888 -0.20565,-1.7795 -0.47838,-1.97931 -0.27271,-0.19981 -0.26242,-0.29078 0.0229,-0.20208 1.10665,0.34389 1.76505,-1.00284 1.66681,-3.40965 -0.0563,-1.38217 0.14416,-2.62287 0.44573,-2.757 0.30153,-0.13421 0.26508,-0.31857 -0.081,-0.4098 -0.34614,-0.0912 -0.43015,-1.32633 -0.18666,-2.74463 l 0.44458,-2.57667 -5.2775,-4.85322 c -2.90223,-2.66893 -5.9353,-5.37598 -6.74044,-6.01487 -0.8047,-0.63934 -3.36865,-2.8232 -5.69681,-4.85375 -3.67803,-3.2071 -4.16794,-3.81266 -3.73286,-4.61665 0.29558,-0.54659 0.0138,-1.42514 -0.68827,-2.14511 -0.65384,-0.6707 -1.27156,-1.65188 -1.37285,-2.18029 -0.38216,-1.99586 1.63925,-1.58651 5.372,1.08788 9.0919,6.51384 10.63884,7.48048 13.48958,8.4291 1.87591,0.62406 4.25377,2.0498 6.28934,3.77101 l 3.27309,2.76754 4.97073,-2.27718 c 7.52881,-3.44923 16.92488,-6.84836 18.80089,-6.80168 2.25037,0.0561 2.81656,1.60697 1.11273,3.04808 -0.74198,0.6276 -1.63913,1.12876 -1.99342,1.11394 -0.35436,-0.0149 -1.81163,0.55153 -3.23836,1.25875 -2.47812,1.22833 -2.54165,1.31386 -1.42137,1.91274 0.64498,0.3448 1.9624,0.68606 2.92767,0.75846 3.53047,0.26468 7.32287,2.08733 8.82076,4.23936 0.77038,1.10684 1.31151,2.30298 1.20242,2.65811 -0.26413,0.85985 -4.6094,0.54408 -8.70641,-0.63264 -1.81914,-0.52251 -5.63356,-1.12555 -8.47661,-1.3403 -3.96836,-0.29949 -5.47928,-0.12758 -6.5052,0.74015 -0.75765,0.64084 -1.10141,1.36458 -0.79386,1.6714 1.96368,1.95917 12.61231,10.74936 16.39349,13.53238 2.50326,1.84245 4.71042,3.50964 4.90479,3.70488 0.38486,0.38659 1.40579,-1.02788 2.73982,-3.7946 3.19396,-6.62525 4.01564,-7.88988 7.03029,-10.81876 2.83881,-2.75806 3.66122,-3.27615 5.74576,-3.61969 1.33813,-0.22046 3.18946,-0.0512 4.11419,0.37643 2.13907,0.98922 12.85574,11.75935 13.32785,13.39429 0.19539,0.67666 1.65316,2.82836 3.23962,4.7815 1.58645,1.95313 3.63576,5.07948 4.55401,6.94744 0.91828,1.86792 2.10729,4.28602 2.64215,5.37351 1.06987,2.17521 2.16874,4.13173 5.02571,8.94828 3.40268,5.73662 3.57189,6.13668 4.15579,9.83291 0.48037,3.04035 -1.21266,8.99072 -2.81745,9.90161 -1.07283,0.60892 -0.92835,0.8041 4.10103,5.54189 9.90904,9.33446 9.70988,9.1069 8.7102,9.95246 -0.73731,0.62364 -1.79871,0.22082 -5.87571,-2.2298 -2.73673,-1.64499 -6.67465,-4.56662 -8.75058,-6.49213 -3.75431,-3.48229 -4.87634,-3.93822 -6.46257,-2.62618 -0.3597,0.29824 -2.51452,1.01803 -4.78763,1.60042 -2.2731,0.58245 -4.13969,1.19704 -4.14792,1.36581 -0.0305,0.623 14.70202,13.47117 17.21707,15.01488 2.82586,1.73452 3.72898,1.67733 2.55581,-0.16186 -0.41016,-0.64302 -0.0191,-0.37192 0.86981,0.6024 1.7162,1.88193 1.61846,3.05612 -0.23461,2.81766 z m -2.21262,-32.8861 c -0.0388,-0.73712 -0.35239,-2.18179 -0.69681,-3.21039 -0.34446,-1.02857 -0.69654,-2.0849 -0.78258,-2.34729 -0.0859,-0.26243 -0.50191,1.16927 -0.92419,3.18152 -0.77704,3.70292 -0.0134,5.82037 1.60524,4.4513 0.47787,-0.40422 0.83714,-1.33799 0.79831,-2.0751 z m -14.53814,5.09688 c -3.49493,-2.71396 -3.70265,-2.77111 -4.74936,-1.3069 -0.5121,0.71637 -1.55828,1.93057 -2.32483,2.69825 -0.76656,0.76766 -1.63743,1.64135 -1.93528,1.94149 -0.29789,0.30014 -0.15897,0.9338 0.30862,1.40814 0.95534,0.96907 4.43194,0.68612 4.76169,-0.38753 0.11411,-0.3845 0.41284,-0.49319 0.65364,-0.24889 0.24376,0.24719 1.3135,0.0511 2.37723,-0.4357 3.44233,-1.57548 3.46793,-1.67942 0.90462,-3.66988 z m 8.69289,-12.64872 c -0.21491,-2.15405 -0.68311,-4.20589 -1.03572,-4.56359 -0.35301,-0.35806 -0.62801,-0.93248 -0.61144,-1.27626 0.0268,-0.63863 -3.0376,-5.90222 -3.30602,-5.67519 -0.0799,0.0678 0.0646,1.53014 0.3213,3.25003 0.25667,1.71987 6.4e-4,4.63286 -0.56891,6.47336 -1.10064,3.55643 -0.73926,4.3771 3.06811,6.96672 1.39055,0.9458 1.68771,0.93459 2.07366,-0.078 0.24779,-0.65012 0.27254,-2.94329 0.0551,-5.09596 z m -20.01535,17.66014 c -0.51904,-0.24095 -1.29849,-0.13367 -1.73553,0.23598 -0.72477,0.61296 -0.64398,0.68501 0.92352,0.82366 1.8824,0.16654 2.29509,-0.37052 0.81314,-1.05813 z m -3.91887,0.97875 c -0.0895,-0.0904 -0.79881,-0.12042 -1.57671,-0.0663 -1.28189,0.0892 -1.28327,0.11865 -0.0155,0.3151 1.33368,0.20787 1.94822,0.11205 1.59131,-0.25002 z m 15.85565,-25.68348 c -0.14461,-1.54073 -0.67378,-4.26727 -1.17555,-6.05888 -0.83303,-2.97271 -1.25017,-3.56397 -4.7714,-6.76359 -4.97582,-4.52123 -9.21667,-7.50901 -10.40118,-7.32792 -2.00138,0.30885 -6.97464,2.85937 -9.13628,4.68769 -2.24671,1.9003 -2.25532,1.93334 -0.86898,3.33482 0.77014,0.77848 2.26978,1.93995 3.33254,2.58094 1.06278,0.64099 3.20899,2.24544 4.7694,3.5655 2.87532,2.4324 14.92411,11.31624 16.31342,12.02823 1.18181,0.60568 2.25193,-2.72782 1.9404,-6.04482 z m -16.68581,-1.09321 c -0.2994,-0.0126 -0.1567,0.3392 0.31681,0.78184 0.5236,0.48909 0.73706,0.49804 0.54435,0.0229 -0.17412,-0.43006 -0.562,-0.79209 -0.8614,-0.80467 l -2e-5,2e-5 z m -6.23381,-4.58433 c -2.46728,-1.79137 -3.68978,-2.46502 -2.86851,-1.58073 1.52221,1.63904 7.82417,6.06939 7.41209,5.21083 -0.13398,-0.27979 -2.17889,-1.91331 -4.5438,-3.63031 z m 17.5376,-14.57032 c -7.41429,-8.73994 -11.73406,-13.49685 -12.02924,-13.24639 -0.19403,0.16456 -0.61314,0.035 -0.93127,-0.28763 -0.31805,-0.32276 -1.34539,-0.58353 -2.28287,-0.57967 -2.70899,0.0112 -4.87563,2.71082 -10.4713,13.04705 -1.09447,2.02165 -1.93171,3.9821 -1.86065,4.35651 0.2158,1.13588 2.22451,2.06425 2.37879,1.09933 0.0747,-0.4676 0.92218,-2.02374 1.88312,-3.45816 2.37479,-3.54488 4.35851,-4.24704 11.041,-3.90838 5.68032,0.28801 8.33909,1.2278 10.9412,3.86737 2.7328,2.77214 3.82127,2.04438 1.33167,-0.89037 z m -32.94063,20.73375 c 1.36029,-1.97448 0.15063,-2.02326 -2.13627,-0.089 -1.8819,1.59169 -2.01158,1.86136 -0.9458,1.99987 1.3432,0.17287 1.86794,-0.15246 3.08191,-1.91098 z m -2.12041,-4.99807 c -0.20639,-0.20939 -1.57933,0.63185 -3.04727,1.87346 -2.77182,2.3444 -2.82682,2.96038 -0.12395,1.38858 0.86049,-0.50045 1.69851,-0.90424 1.86222,-0.89733 0.57521,0.0254 1.68832,-1.97995 1.3099,-2.36381 z M 816.972,765.768 c 0.26615,-0.49216 0.21437,-1.1683 -0.11511,-1.50253 -0.77049,-0.78163 -2.85558,0.95134 -2.78587,2.31547 0.0871,1.70644 1.79778,1.22707 2.90099,-0.81296 z m -7.18992,0.31742 c 0.17778,-0.60719 -1.94368,-3.06644 -7.87358,-9.12739 -12.78745,-13.06987 -11.67481,-12.11587 -12.73514,-10.91906 -0.58841,0.66428 -0.65202,1.94081 -0.17659,3.54407 0.40869,1.37823 0.69964,2.72618 0.6465,2.9955 -0.0531,0.2693 0.31841,1.20296 0.82538,2.07491 0.5071,0.87187 0.91417,2.30166 0.9047,3.17731 -0.018,1.67056 0.39646,2.27262 3.68761,5.35639 6.55559,6.14243 8.78385,7.45755 10.74439,6.34089 2.1799,-1.24116 3.72276,-2.57731 3.97642,-3.44289 z m 2.92979,-4.13174 c 0.18816,-0.64007 -0.41911,-1.46505 -2.08127,-2.82712 -1.28764,-1.05474 -5.10259,-4.26758 -8.4745,-7.13521 -3.37141,-2.86806 -6.79022,-5.55202 -7.60169,-5.96959 -1.76596,-0.90595 -2.45964,-1.70153 8.33003,9.55328 7.04776,7.35159 8.24793,8.42116 8.85845,7.89442 0.38827,-0.33525 0.82559,-1.01617 0.97174,-1.51329 z m -3.86356,-31.21774 c -0.2365,-0.23995 -0.65447,-0.2464 -0.92876,-0.0144 -0.27433,0.23197 -0.17423,0.50735 0.22238,0.61186 0.39661,0.10452 0.81456,0.11101 0.92878,0.0144 0.11405,-0.0967 0.0141,-0.37198 -0.22239,-0.61187 z m -2.83681,-0.24955 c -0.65917,-0.66864 -4.47222,-1.05736 -4.50158,-0.45892 -0.018,0.3672 4.56965,1.4466 4.91816,1.15185 0.08,-0.0679 -0.10781,-0.38083 -0.41738,-0.69491 z m -1.03406,-3.67709 c -0.23649,-0.23992 -0.65447,-0.24637 -0.92876,-0.0143 -0.27434,0.23198 -0.17425,0.50733 0.22238,0.61186 0.39659,0.10452 0.81455,0.11099 0.92877,0.0144 0.11407,-0.0967 0.0142,-0.37196 -0.22239,-0.61188 z m -5.26831,2.14609 c -0.456,-0.005 -1.50371,0.28936 -2.3281,0.65402 -1.34171,0.59312 -1.35739,0.68084 -0.14934,0.83635 0.74237,0.0955 1.78997,-0.19896 2.32809,-0.65402 0.59174,-0.50052 0.65077,-0.83101 0.14935,-0.83635 z m 17.06664,9.42011 c -0.42299,-0.11149 -0.75922,-0.40306 -0.74722,-0.64799 0.0293,-0.59782 1.49061,-0.82408 1.99798,-0.30942 0.5496,0.55745 -0.30014,1.20795 -1.25062,0.9575 z" />
  <path
     d="m 1009.1231,666.03905 c -2.2951,-0.30733 -6.6349,-2.95065 -10.6119,-6.46441 -2.18604,-1.93142 -4.35503,-3.78742 -4.81767,-4.12244 -0.46509,-0.33736 -3.01033,-2.86056 -5.65631,-5.60737 l -4.80767,-4.99028 -4.32344,0.64297 c -2.37837,0.35362 -5.65,0.66016 -7.26585,0.68743 -1.62053,0.0223 -3.75521,0.13463 -4.73795,0.25668 -2.25979,0.27659 -8.8515,-1.38271 -9.89965,-2.48731 -0.94196,-0.99268 -0.25252,-2.61783 1.22002,-2.87577 0.57516,-0.10103 1.34041,-0.54119 1.70046,-0.97883 0.37346,-0.45387 2.14401,-0.37095 4.12221,0.19315 3.61537,1.03088 6.301,0.66365 9.6457,-1.31878 1.31603,-0.78006 1.86042,-1.44208 1.62726,-1.97895 -0.19274,-0.44371 -2.90297,-3.61718 -6.02286,-7.0523 -7.01666,-7.7254 -7.06991,-9.62282 -0.0703,-2.49807 2.68769,2.73577 5.68915,5.78741 6.66978,6.78138 1.46202,1.48191 2.05115,1.66815 3.27308,1.03473 1.5318,-0.79398 4.7456,-5.11312 4.53461,-6.09408 -0.065,-0.30241 -2.32888,-2.26967 -5.03081,-4.37175 -2.70194,-2.10209 -7.77177,-6.3963 -11.26633,-9.5427 -3.49455,-3.1464 -7.2177,-6.32795 -8.27324,-7.06977 -1.82179,-1.28028 -1.99697,-1.25504 -3.4376,0.4951 -0.83487,1.01426 -1.52994,2.11052 -1.54461,2.43616 -0.0145,0.32557 1.87454,2.65061 4.19808,5.16674 5.26487,5.70089 5.36386,5.8309 4.80578,6.3213 -0.25164,0.221 -2.25808,-1.57652 -4.45885,-3.99461 -2.20084,-2.41806 -4.47477,-4.48933 -5.05329,-4.60269 -0.5796,-0.11466 -1.92691,0.56318 -2.997,1.50309 -2.34651,2.06187 -3.94515,2.73414 -4.67981,1.9599 -0.29886,-0.315 -2.45147,-0.83178 -4.7835,-1.14839 -2.33204,-0.31664 -5.14745,-1.09074 -6.25654,-1.72021 -4.20519,-2.38683 -18.47976,-16.49927 -19.0861,-18.86929 -0.18813,-0.73631 -0.75268,-2.00358 -1.25414,-2.81629 -0.50125,-0.81277 -0.90325,-2.29957 -0.89288,-3.30432 0.0105,-1.00475 -0.22377,-2.01164 -0.52054,-2.23752 -0.29674,-0.22587 -0.28554,-0.32871 0.0249,-0.22844 1.20418,0.38875 1.92061,-1.13366 1.81371,-3.85445 -0.0613,-1.56248 0.15686,-2.96503 0.48501,-3.11666 0.32811,-0.15172 0.28844,-0.36013 -0.0881,-0.46326 -0.37665,-0.10313 -0.46806,-1.49935 -0.20312,-3.10268 l 0.48377,-2.9128 -5.74261,-5.48634 c -3.15801,-3.0171 -6.45838,-6.07729 -7.33448,-6.79953 -0.87562,-0.72274 -3.66553,-3.1915 -6.19888,-5.48694 -4.00217,-3.62547 -4.53526,-4.31003 -4.06184,-5.21891 0.32164,-0.61789 0.015,-1.61105 -0.74892,-2.42494 -0.71147,-0.7582 -1.38363,-1.86738 -1.49384,-2.46472 -0.41584,-2.25622 1.78372,-1.79347 5.84544,1.2298 9.89317,7.36359 11.57644,8.45633 14.67842,9.5287 2.04123,0.70548 4.62866,2.31721 6.84362,4.26295 l 3.56155,3.12858 5.40881,-2.57425 c 8.19232,-3.89919 18.41648,-7.74175 20.45782,-7.68898 2.4487,0.0634 3.06478,1.81661 1.21079,3.44572 -0.80737,0.70947 -1.78358,1.27601 -2.1691,1.25925 -0.38559,-0.0168 -1.97129,0.62348 -3.52376,1.42296 -2.69651,1.38857 -2.76564,1.48526 -1.54663,2.16226 0.70182,0.38978 2.13535,0.77556 3.18569,0.85741 3.84161,0.2992 7.96824,2.35963 9.59814,4.7924 0.83827,1.25123 1.42709,2.60341 1.30838,3.00486 -0.2874,0.97203 -5.01562,0.61506 -9.47371,-0.71517 -1.97946,-0.59067 -6.13004,-1.27238 -9.22365,-1.51514 -4.3181,-0.33856 -5.96218,-0.14422 -7.07851,0.8367 -0.82442,0.72444 -1.19848,1.5426 -0.86383,1.88944 2.13674,2.21475 13.72385,12.15165 17.83826,15.29773 2.72388,2.0828 5.12555,3.96748 5.33705,4.18819 0.41878,0.43702 1.52969,-1.16197 2.98129,-4.28962 3.47544,-7.48953 4.36954,-8.91914 7.64987,-12.2301 3.089,-3.11786 3.98389,-3.70353 6.25214,-4.09189 1.45606,-0.24922 3.47055,-0.0579 4.47677,0.42554 2.32759,1.11826 13.98873,13.29339 14.50245,15.14162 0.2126,0.76493 1.79885,3.19733 3.52512,5.40526 1.72627,2.20792 3.95619,5.74211 4.95536,7.85375 0.99921,2.1116 2.29301,4.84515 2.87501,6.07451 1.16415,2.45897 2.35987,4.67072 5.46867,10.11561 3.7025,6.48498 3.8867,6.93723 4.522,11.11565 0.5227,3.43697 -1.3195,10.16359 -3.0657,11.19331 -1.1674,0.68835 -1.0102,0.90899 4.4624,6.26484 10.7824,10.55217 10.5656,10.29493 9.4779,11.2508 -0.8023,0.70499 -1.9573,0.24962 -6.3936,-2.52069 -2.9779,-1.85958 -7.2629,-5.16235 -9.5218,-7.33905 -4.08516,-3.93657 -5.30607,-4.45197 -7.0321,-2.96877 -0.3914,0.33714 -2.73613,1.15083 -5.20957,1.8092 -2.47343,0.65843 -4.50452,1.35319 -4.51347,1.54398 -0.0332,0.70427 15.99774,15.22853 18.73444,16.97362 3.0749,1.9608 4.0576,1.89615 2.7811,-0.18297 -0.4464,-0.72691 -0.021,-0.42044 0.9464,0.68098 1.8675,2.12744 1.7611,3.4548 -0.2553,3.18523 z m -2.4076,-37.1762 c -0.042,-0.83328 -0.3835,-2.46641 -0.7582,-3.62919 -0.3749,-1.16275 -0.758,-2.35688 -0.8516,-2.6535 -0.093,-0.29667 -0.5461,1.3218 -1.0056,3.59655 -0.8455,4.18598 -0.015,6.57966 1.7467,5.03199 0.52,-0.45695 0.9109,-1.51253 0.8687,-2.3458 z m -15.81943,5.76179 c -3.80295,-3.06801 -4.02897,-3.13261 -5.16793,-1.47739 -0.55723,0.80982 -1.69561,2.18242 -2.52972,3.05024 -0.83412,0.86781 -1.78173,1.85548 -2.10584,2.19477 -0.32414,0.33929 -0.17297,1.05562 0.33582,1.59183 1.03954,1.09549 4.82253,0.77563 5.18135,-0.43808 0.12416,-0.43466 0.44922,-0.55753 0.71124,-0.28136 0.26524,0.27944 1.42926,0.0578 2.58674,-0.49254 3.7457,-1.781 3.77356,-1.8985 0.98434,-4.14863 z m 9.45903,-14.29879 c -0.2339,-2.43505 -0.74335,-4.75456 -1.12703,-5.15892 -0.38413,-0.40478 -0.68336,-1.05413 -0.66533,-1.44276 0.0292,-0.72194 -3.30531,-6.67218 -3.59738,-6.41553 -0.0869,0.0766 0.0703,1.72975 0.34961,3.674 0.2793,1.94423 7e-4,5.23723 -0.61904,7.31783 -1.19764,4.02038 -0.80442,4.94811 3.3385,7.87556 1.5131,1.06918 1.83645,1.05651 2.25647,-0.0882 0.2696,-0.73493 0.2965,-3.32725 0.06,-5.76075 z m -21.77935,19.96397 c -0.56478,-0.27239 -1.41293,-0.15111 -1.88848,0.26676 -0.78865,0.69292 -0.70074,0.77437 1.00491,0.93111 2.04829,0.18826 2.49736,-0.41886 0.8848,-1.19617 z m -4.26424,1.10643 c -0.0974,-0.10219 -0.86921,-0.13613 -1.71567,-0.075 -1.39486,0.1008 -1.39636,0.13413 -0.0169,0.35621 1.45122,0.23499 2.11992,0.12666 1.73156,-0.28264 z m 17.25302,-29.03398 c -0.15736,-1.74172 -0.73317,-4.82395 -1.27916,-6.84928 -0.90644,-3.36051 -1.36034,-4.0289 -5.1919,-7.64592 -5.41434,-5.11104 -10.02894,-8.48859 -11.31785,-8.28388 -2.17776,0.34914 -7.58931,3.23239 -9.94146,5.29922 -2.44471,2.1482 -2.45408,2.18555 -0.94556,3.76986 0.83801,0.88003 2.46981,2.19302 3.62623,2.91763 1.15645,0.72461 3.49181,2.53837 5.18973,4.03063 3.12873,2.74972 16.23939,12.79248 17.75114,13.59735 1.28596,0.6847 2.45039,-3.08367 2.1114,-6.83338 z m -18.15635,-1.23582 c -0.32578,-0.0142 -0.17051,0.38345 0.34474,0.88383 0.56974,0.55289 0.80201,0.56301 0.59232,0.0259 -0.18947,-0.48616 -0.61153,-0.89542 -0.93732,-0.90964 l -2e-5,2e-5 z m -6.78319,-5.18237 c -2.68473,-2.02506 -4.01497,-2.78659 -3.12132,-1.78694 1.65637,1.85285 8.51372,6.86116 8.06532,5.8906 -0.14578,-0.31629 -2.37091,-2.16291 -4.94424,-4.1039 z m 19.08319,-16.47107 c -8.06771,-9.8801 -12.76819,-15.25756 -13.08938,-14.97443 -0.21113,0.18603 -0.66718,0.0396 -1.01334,-0.32515 -0.34608,-0.36486 -1.46396,-0.65965 -2.48406,-0.65529 -2.94774,0.0126 -5.30533,3.06446 -11.39415,14.74908 -1.19092,2.28538 -2.10195,4.50158 -2.02463,4.92483 0.23482,1.28406 2.42056,2.33354 2.58844,1.24274 0.0813,-0.5286 1.00345,-2.28774 2.04908,-3.90928 2.58408,-4.00732 4.74263,-4.80108 12.01405,-4.41825 6.18093,0.32559 9.07402,1.38798 11.90545,4.37189 2.97365,3.13377 4.15805,2.31107 1.44903,-1.00652 z m -35.8437,23.43854 c 1.48017,-2.23206 0.1639,-2.28721 -2.32454,-0.10062 -2.04776,1.79933 -2.18886,2.10418 -1.02916,2.26075 1.46158,0.19543 2.03257,-0.17235 3.35352,-2.16027 z m -2.30729,-5.65009 c -0.22458,-0.2367 -1.71851,0.71428 -3.31582,2.11786 -3.0161,2.65023 -3.07595,3.34657 -0.13488,1.56973 0.93633,-0.56574 1.8482,-1.02221 2.02634,-1.01439 0.6259,0.0287 1.83711,-2.23825 1.42534,-2.67218 z m 4.03994,-3.08899 c 0.28961,-0.55636 0.23326,-1.3207 -0.12525,-1.69853 -0.8384,-0.8836 -3.10725,1.07544 -3.03139,2.61753 0.0948,1.92905 1.95621,1.38714 3.15665,-0.91902 z m -7.82357,0.35883 c 0.19345,-0.6864 -2.11498,-3.46646 -8.56749,-10.31808 -13.91441,-14.77488 -12.70371,-13.69643 -13.85749,-12.34349 -0.64027,0.75094 -0.70948,2.19399 -0.19215,4.0064 0.4447,1.55803 0.7613,3.08182 0.70347,3.38628 -0.0578,0.30443 0.34647,1.35989 0.89812,2.34558 0.55179,0.98561 0.99474,2.60192 0.98444,3.5918 -0.0196,1.88849 0.4314,2.5691 4.0126,6.05515 7.13334,6.94373 9.55797,8.43042 11.6913,7.16808 2.37201,-1.40307 4.05085,-2.91352 4.32686,-3.89202 z m 3.18799,-4.67074 c 0.20474,-0.72357 -0.45604,-1.65617 -2.26469,-3.19592 -1.40112,-1.19234 -5.55229,-4.8243 -9.22136,-8.06603 -3.66854,-3.2422 -7.38865,-6.2763 -8.27164,-6.74834 -1.92159,-1.02413 -2.67641,-1.9235 9.06416,10.79954 7.66889,8.31063 8.97483,9.51973 9.63916,8.92427 0.42248,-0.37898 0.89834,-1.14873 1.05738,-1.7107 z m -4.20406,-35.2902 c -0.25734,-0.27125 -0.71214,-0.27854 -1.01061,-0.0163 -0.2985,0.26223 -0.18958,0.57354 0.24198,0.69168 0.43156,0.11816 0.88635,0.12549 1.01063,0.0163 0.12411,-0.10937 0.0154,-0.4205 -0.24199,-0.69169 z m -3.08682,-0.2821 c -0.71726,-0.75587 -4.86636,-1.1953 -4.8983,-0.51879 -0.0196,0.41511 4.97237,1.63532 5.3516,1.30212 0.087,-0.0767 -0.11731,-0.43052 -0.45417,-0.78557 z m -1.12519,-4.15678 c -0.25733,-0.27122 -0.71215,-0.27851 -1.01061,-0.0162 -0.29852,0.26224 -0.18961,0.57352 0.24198,0.69168 0.43154,0.11816 0.88633,0.12547 1.01062,0.0163 0.12412,-0.10935 0.0154,-0.42048 -0.24199,-0.6917 z m -5.73261,2.42606 c -0.49618,-0.006 -1.63623,0.3271 -2.53327,0.73934 -1.45996,0.67049 -1.47702,0.76965 -0.16251,0.94545 0.8078,0.108 1.94773,-0.22492 2.53327,-0.73934 0.64389,-0.56581 0.70812,-0.93942 0.16251,-0.94545 z m 18.57074,10.64899 c -0.46027,-0.12603 -0.82614,-0.45564 -0.81308,-0.73252 0.0319,-0.67581 1.62198,-0.93159 2.17407,-0.34979 0.59803,0.63017 -0.3266,1.36553 -1.36084,1.08241 z"
     style="fill:#000000;stroke-width:0.68073976"
     id="path5113"
     inkscape:connector-curvature="0"
     inkscape:transform-center-x="119.52387"
     inkscape:transform-center-y="17.502698" />
</svg>
