<?xml version="1.0" encoding="utf-8"?>
<!-- Generator: Adobe Illustrator 26.3.1, SVG Export Plug-In . SVG Version: 6.00 Build 0)  -->
<svg version="1.1" id="Layer_1" xmlns="http://www.w3.org/2000/svg" xmlns:xlink="http://www.w3.org/1999/xlink" x="0px" y="0px"
	 viewBox="0 0 355.7 659.3" style="enable-background:new 0 0 355.7 659.3;" xml:space="preserve">
<style type="text/css">
	.st0{fill:#FFFFFF;}
	.st1{fill:#010101;}
</style>
<g>
	<path class="st0" d="M129.3,413.7c22.6,0,49.7-20.4,41.2-31.5c-6.1-7.9-10.5,0.2-22.2-9.9c-5-4.3-6.2-10.8-12.4-15.8
		c-2-1.6-5.3-2.7-9-2.8h0l0,0c-0.5,0-1.1,0-1.6,0c-7.4,0.3-16.1,4.4-20.9,14.9C98.2,381.8,102.3,413.7,129.3,413.7z"/>
	<path class="st0" d="M252.3,401.7c-16.3,0-24.8,9.9-25.8,23.8c-1.4,18.3,5.3,22.1,18.1,24.2c37.1,6.1,56.7,29.9,59.6,43.2
		c0,0,27-16.6,6.5-59.1C298.6,408.7,267.8,401.7,252.3,401.7z"/>
	<path class="st0" d="M146.8,333c3,7.2,5,31.1,40.4,23c38.4-8.8,30.6-48.6,14-58.9c-5-3.1-13.7-5.2-23.5-5.1
		c-9.8,0-20.8,2.2-30.2,7.6c-9,5.2-17.1,15.5-18.7,25.2C128.8,324.8,143.8,325.8,146.8,333z"/>
	<path class="st0" d="M264.2,461.4c-17.8-8.6-38.8-8.3-51.5-1.5c-21.6,11.6-24.7,39.3,11.8,47.1l-1.3,6.4c0,0-13.6-3.8-20.9-8.8
		c-18.4,18.8-55.3,14-78.1-3.8c0,8.2-1.6,15-4.3,20.6l-5.5-3.1c0,0,14.8-30.2-16.9-64.6c-17-18.4-23.5-34.7-23.7-59.3
		c-0.2-21.7,6.7-39.5,24.5-58.6c0,0-11.2-17.8-28.1-17.6h0c-3.9,0.1-8.1,1.1-12.6,3.5c-14.4,7.8-10.8,30.3-11.5,51.6
		C45.6,391,35,402.7,27.1,412c-8.8,10.3-21.4,28.1-21.4,65.4c0,26.8,15.6,64.6,39.1,78l-0.8,7.2c0,0-12-5.3-21.3-20.3
		c0,0-17.3-1.9-17.3,17.3c0,37.8,86.4,92.6,133,93.2c39.8,0.5,31-32.8,31-32.8s-32.1,4-63.6-14.4l2.5-5.3c0,0,28.4,18.7,69.7,12.5
		c35.8-5.4,57.4-25.6,65.8-53.6c0,0,29.3-1.3,44.1-18.9c5.9-7,11.8-17.8,12.2-29.2C300.7,489.2,291.5,474.6,264.2,461.4z"/>
	<path class="st0" d="M260.4,379c16.8,4.6,19.4,24,19.4,24c17.5,3.4,33.2,24.3,33.2,24.3c15.4-7.6,24.2-36.5,12.4-63.7
		c-8.9-20.4-28-31.9-47.5-31.6h0c-6.5,0.1-13,1.5-19.2,4.4C233.8,347.8,243.6,374.4,260.4,379z"/>
	<path class="st1" d="M289.4,279.9l4.8-0.5c5.6-43.4,61.5-55.8,61.5-120.4c0-48.3-33.1-86.8-61.2-105.4C278.6,43.1,243.7,20,239.4,0
		l-3.9,0.8c0,0,2.1,7.5,2.3,11.9v298.1c0,0-8.5-4.2-19.9-1.1c0,0-8.8-30.5-52.6-22.3C125.7,294.8,123,325,123,325
		s-14.5,2.7-20.2,7.6c-4.8-8.7-23.4-25.4-41.4-18.2c-22.1,8.8-21.4,27.7-21,47c0.3,12.3,0,24.3-9.7,37c-5.4,7.1-30.5,31.6-30.5,70.2
		c0,20.9,1.1,40.5,18.4,68c0,0-19.2,3.8-18.6,23.3c0.1,4.2,0.2,6.6,2.5,13.5c7.5,21.7,33.9,41.4,33.9,41.4
		c12.7,10.2,35.2,27.3,74.5,39.6c21.2,6.7,38.2,7.1,52.5-1.5c12.8-7.7,12.1-26.9,11.9-32.7c2.8-0.4,5.5-1,8.3-1.6
		c50.1-12,62.3-43.4,63.9-54.3c28.7-3,39.7-14.7,39.7-14.7c12-9.6,20.5-24.8,17.1-48.6c9.4-7.6,29-27.5,11.2-68.7
		c20.5-8.8,30.9-56.1,6.9-83.8c-30.9-35.5-66.1-17.4-66.1-17.4V98.8c20.6,13.7,56.7,26.8,56.7,67.6
		C313,209.5,277.7,217.8,289.4,279.9z M147.5,299.5c9.4-5.4,20.4-7.6,30.2-7.6c9.8,0,18.5,2,23.5,5.1c16.6,10.3,24.4,50.2-14,58.9
		c-35.4,8.1-37.4-15.8-40.4-23c-3-7.2-18-8.2-18-8.2C130.4,315,138.4,304.7,147.5,299.5z M104.4,368.6c4.9-10.5,13.6-14.6,20.9-14.9
		c0.6,0,1.1,0,1.6,0l0,0h0c3.7,0.1,7,1.2,9,2.8c6.2,5,7.4,11.4,12.4,15.8c11.7,10.2,16.2,2,22.2,9.9c8.5,11.1-18.6,31.5-41.2,31.5
		C102.3,413.7,98.2,381.8,104.4,368.6z M300,511.1c-0.4,11.4-6.3,22.2-12.2,29.2c-14.8,17.6-44.1,18.9-44.1,18.9
		c-8.4,28-30,48.2-65.8,53.6c-41.3,6.2-69.7-12.5-69.7-12.5l-2.5,5.3c31.5,18.4,63.6,14.4,63.6,14.4s8.8,33.3-31,32.8
		c-46.6-0.6-133-55.4-133-93.2c0-19.2,17.3-17.3,17.3-17.3c9.3,15,21.3,20.3,21.3,20.3l0.8-7.2c-23.5-13.4-39.1-51.2-39.1-78
		c0-37.3,12.6-55.1,21.4-65.4c7.9-9.3,18.5-21,19.1-38.7c0.8-21.3-2.9-43.8,11.5-51.6c4.4-2.4,8.6-3.4,12.6-3.5h0h0h0
		c16.9-0.2,28.1,17.6,28.1,17.6c-17.8,19.1-24.7,36.8-24.5,58.6c0.2,24.6,6.8,40.9,23.7,59.3c31.7,34.4,16.9,64.6,16.9,64.6l5.5,3.1
		c2.7-5.6,4.2-12.4,4.3-20.6c22.8,17.8,59.6,22.6,78.1,3.8c7.4,5,20.9,8.8,20.9,8.8l1.3-6.4c-36.6-7.8-33.5-35.4-11.8-47.1
		c12.7-6.8,33.7-7.1,51.5,1.5C291.5,474.6,300.7,489.2,300,511.1z M304.2,493c-2.9-13.3-22.5-37.1-59.6-43.2
		c-12.8-2.1-19.5-5.9-18.1-24.2c1.1-13.9,9.5-23.8,25.8-23.8c15.6,0,46.3,7,58.4,32.1C331.1,476.4,304.2,493,304.2,493z
		 M258.6,336.4c6.2-2.8,12.7-4.3,19.2-4.4h0h0h0c19.5-0.3,38.7,11.2,47.5,31.6c11.8,27.2,3,56.1-12.4,63.7c0,0-15.7-20.9-33.2-24.3
		c0,0-2.6-19.4-19.4-24C243.6,374.4,233.8,347.8,258.6,336.4z"/>
</g>
</svg>
